<svg width="80" height="80" viewBox="0 0 80 80" fill="none" xmlns="http://www.w3.org/2000/svg">
<path d="M70 12.5C71.375 12.5 72.5 13.625 72.5 15V64.9687L71.7188 63.9531L50.4688 36.4531C49.7656 35.5313 48.6563 35 47.5 35C46.3437 35 45.25 35.5313 44.5312 36.4531L31.5625 53.2344L26.7969 46.5625C26.0938 45.5781 24.9688 45 23.75 45C22.5312 45 21.4062 45.5781 20.7031 46.5781L8.20312 64.0781L7.5 65.0469V15C7.5 13.625 8.625 12.5 10 12.5H70ZM10 5C4.48438 5 0 9.48438 0 15V65C0 70.5156 4.48438 75 10 75H70C75.5156 75 80 70.5156 80 65V15C80 9.48438 75.5156 5 70 5H10ZM22.5 35C23.4849 35 24.4602 34.806 25.3701 34.4291C26.2801 34.0522 27.1069 33.4997 27.8033 32.8033C28.4997 32.1069 29.0522 31.2801 29.4291 30.3701C29.806 29.4602 30 28.4849 30 27.5C30 26.5151 29.806 25.5398 29.4291 24.6299C29.0522 23.7199 28.4997 22.8931 27.8033 22.1967C27.1069 21.5003 26.2801 20.9478 25.3701 20.5709C24.4602 20.194 23.4849 20 22.5 20C21.5151 20 20.5398 20.194 19.6299 20.5709C18.7199 20.9478 17.8931 21.5003 17.1967 22.1967C16.5003 22.8931 15.9478 23.7199 15.5709 24.6299C15.194 25.5398 15 26.5151 15 27.5C15 28.4849 15.194 29.4602 15.5709 30.3701C15.9478 31.2801 16.5003 32.1069 17.1967 32.8033C17.8931 33.4997 18.7199 34.0522 19.6299 34.4291C20.5398 34.806 21.5151 35 22.5 35Z" fill="white"/>
</svg>
