<svg width="23" height="17" viewBox="0 0 23 17" fill="none" xmlns="http://www.w3.org/2000/svg">
<path d="M14.6248 0.166748C13.5198 0.166748 12.46 0.605735 11.6786 1.38714C10.8972 2.16854 10.4582 3.22835 10.4582 4.33341C10.4582 5.43848 10.8972 6.49829 11.6786 7.27969C12.46 8.06109 13.5198 8.50008 14.6248 8.50008C15.7299 8.50008 16.7897 8.06109 17.5711 7.27969C18.3525 6.49829 18.7915 5.43848 18.7915 4.33341C18.7915 3.22835 18.3525 2.16854 17.5711 1.38714C16.7897 0.605735 15.7299 0.166748 14.6248 0.166748ZM14.6248 2.14591C14.9121 2.14591 15.1966 2.2025 15.462 2.31243C15.7274 2.42236 15.9685 2.58349 16.1716 2.78662C16.3748 2.98975 16.5359 3.2309 16.6458 3.49629C16.7558 3.76169 16.8123 4.04615 16.8123 4.33341C16.8123 4.62068 16.7558 4.90514 16.6458 5.17054C16.5359 5.43593 16.3748 5.67708 16.1716 5.88021C15.9685 6.08334 15.7274 6.24447 15.462 6.3544C15.1966 6.46433 14.9121 6.52092 14.6248 6.52092C14.3376 6.52092 14.0531 6.46433 13.7877 6.3544C13.5223 6.24447 13.2812 6.08334 13.078 5.88021C12.8749 5.67708 12.7138 5.43593 12.6038 5.17054C12.4939 4.90514 12.4373 4.62068 12.4373 4.33341C12.4373 3.75325 12.6678 3.19685 13.078 2.78662C13.4883 2.37638 14.0447 2.14591 14.6248 2.14591ZM3.1665 3.29175V6.41675H0.0415039V8.50008H3.1665V11.6251H5.24984V8.50008H8.37484V6.41675H5.24984V3.29175H3.1665ZM14.6248 9.54175C11.8436 9.54175 6.2915 10.9272 6.2915 13.7084V16.8334H22.9582V13.7084C22.9582 10.9272 17.4061 9.54175 14.6248 9.54175ZM14.6248 11.5209C17.7186 11.5209 20.979 13.0417 20.979 13.7084V14.8542H8.27067V13.7084C8.27067 13.0417 11.4998 11.5209 14.6248 11.5209Z" fill="#FF0000"/>
</svg>
