<svg class="svg-icon" style="width: 1em; height: 1em;vertical-align: middle;fill: currentColor;overflow: hidden;" viewBox="0 0 1024 1024" version="1.1" xmlns="http://www.w3.org/2000/svg">
    <path d="M492.642454 544.492238c138.576752 0 250.922119-112.345367 250.922119-250.924119 0-138.576752-112.344367-250.922119-250.922119-250.922119-138.578752 0-250.924119 112.345367-250.924119 250.923119 0 138.577752 112.345367 250.923119 250.924119 250.923119m329.666273 152.226433C763.454107 634.645126 743.657571 613.336625 635.847097 607.485762H349.42681c-107.810473 5.851863-127.607009 27.159363-186.461629 89.231909-62.510535 64.169496-112.295368 145.404592-88.694922 246.144231 26.184386 65.876456 96.935728 81.138098 163.83616 81.138098h509.062069c66.899432 0 137.699773-15.261642 163.885159-81.138098 23.599447-100.739639-26.185386-181.974735-88.74492-246.144231"  />
</svg>