<svg width="120" height="120" viewBox="0 0 220 220" fill="none" xmlns="http://www.w3.org/2000/svg">
<g clip-path="url(#clip0_119_7)">
<path d="M110 220C49.2456 220 0 170.754 0 110C0 49.2456 49.2456 0 110 0C170.754 0 220 49.2456 220 110H206.25C206.25 56.8425 163.157 13.75 110 13.75C56.8425 13.75 13.75 56.8425 13.75 110C13.75 163.157 56.8425 206.25 110 206.25V220Z" fill="#E90000"/>
<path d="M185.625 137.5V220H171.875V137.5H185.625ZM151.25 165V220H137.5V165H151.25ZM220 151.25V220H206.25V151.25H220ZM116.875 61.875V103.125H158.125V116.875H116.875V158.125H103.125V116.875H61.875V103.125H103.125V61.875H116.875Z" fill="#E90000"/>
</g>
<defs>
<clipPath id="clip0_119_7">
<rect width="220" height="220" fill="white"/>
</clipPath>
</defs>
</svg>
