<svg width="25" height="25" viewBox="0 0 25 25" fill="none" xmlns="http://www.w3.org/2000/svg">
<path d="M14.5837 22.9166H10.417V21.8749H14.5837V22.9166ZM13.542 10.4166V7.29159H11.4587V10.4166L10.417 11.9791V20.8333H14.5837V11.9791L13.542 10.4166ZM12.5003 2.08325C12.5003 2.08325 11.4587 3.12492 11.4587 5.20825V6.24992H13.542V5.20825C13.542 5.20825 13.542 3.12492 12.5003 2.08325ZM8.33366 22.9166H4.16699V21.8749H8.33366V22.9166ZM7.29199 10.4166V7.29159H5.20866V10.4166L4.16699 11.9791V20.8333H8.33366V11.9791L7.29199 10.4166ZM6.25033 2.08325C6.25033 2.08325 5.20866 3.12492 5.20866 5.20825V6.24992H7.29199V5.20825C7.29199 5.20825 7.29199 3.12492 6.25033 2.08325ZM20.8337 22.9166H16.667V21.8749H20.8337V22.9166ZM19.792 10.4166V7.29159H17.7087V10.4166L16.667 11.9791V20.8333H20.8337V11.9791L19.792 10.4166ZM18.7503 2.08325C18.7503 2.08325 17.7087 3.12492 17.7087 5.20825V6.24992H19.792V5.20825C19.792 5.20825 19.792 3.12492 18.7503 2.08325Z" fill="white"/>
</svg>
