<svg width="25" height="25" viewBox="0 0 25 25" fill="none" xmlns="http://www.w3.org/2000/svg">
<path d="M12.5007 11.9791C11.81 11.9791 11.1476 11.7047 10.6592 11.2163C10.1709 10.728 9.89648 10.0656 9.89648 9.37492C9.89648 8.68425 10.1709 8.02187 10.6592 7.53349C11.1476 7.04512 11.81 6.77075 12.5007 6.77075C13.1913 6.77075 13.8537 7.04512 14.3421 7.53349C14.8305 8.02187 15.1048 8.68425 15.1048 9.37492C15.1048 9.7169 15.0375 10.0555 14.9066 10.3715C14.7757 10.6874 14.5839 10.9745 14.3421 11.2163C14.1003 11.4582 13.8132 11.65 13.4972 11.7809C13.1813 11.9117 12.8426 11.9791 12.5007 11.9791ZM12.5007 2.08325C10.5668 2.08325 8.71212 2.85148 7.34466 4.21893C5.97721 5.58638 5.20898 7.44105 5.20898 9.37492C5.20898 14.8437 12.5007 22.9166 12.5007 22.9166C12.5007 22.9166 19.7923 14.8437 19.7923 9.37492C19.7923 7.44105 19.0241 5.58638 17.6566 4.21893C16.2892 2.85148 14.4345 2.08325 12.5007 2.08325Z" fill="#FF0000"/>
</svg>
