<svg width="24" height="24" viewBox="0 0 24 24" fill="none" xmlns="http://www.w3.org/2000/svg">
    <g clip-path="url(#clip0_107_38)">
        <path d="M23.59 3.47488C23.3353 2.77454 22.9303 2.13851 22.4033 1.61157C21.8764 1.08462 21.2403 0.67956 20.54 0.424883C19.23 0.00488284 18.04 0.00488281 15.62 0.00488281H8.36C5.96 0.00488281 4.75 0.00488281 3.46 0.404883C2.75864 0.660622 2.12198 1.06722 1.59496 1.59596C1.06795 2.1247 0.663442 2.76269 0.41 3.46488C0 4.76488 0 5.96488 0 8.36488V15.6349C0 18.0449 0 19.2349 0.4 20.5349C0.654678 21.2352 1.05974 21.8713 1.58669 22.3982C2.11363 22.9251 2.74966 23.3302 3.45 23.5849C4.75 23.9949 5.95 23.9949 8.35 23.9949H15.63C18.04 23.9949 19.24 23.9949 20.53 23.5949C21.2332 23.3404 21.8718 22.9343 22.4007 22.4055C22.9295 21.8767 23.3355 21.2381 23.59 20.5349C24 19.2349 24 18.0349 24 15.6349V8.38488C24 5.97488 24 4.77488 23.59 3.47488ZM17.42 8.10488L16.49 9.03488C16.3994 9.11919 16.2807 9.16687 16.1569 9.16872C16.0332 9.17057 15.9131 9.12644 15.82 9.04488C14.9193 8.28425 13.7789 7.86632 12.6 7.86488C11.63 7.86488 10.66 8.18488 10.66 9.07488C10.66 9.97488 11.7 10.2749 12.9 10.7249C15 11.4249 16.74 12.3049 16.74 14.3649C16.74 16.6049 15 18.1449 12.16 18.3149L11.9 19.5149C11.877 19.6252 11.8167 19.7241 11.7293 19.7952C11.6419 19.8662 11.5326 19.905 11.42 19.9049H9.63L9.54 19.8949C9.41188 19.8661 9.3002 19.7881 9.2291 19.6778C9.158 19.5674 9.13318 19.4334 9.16 19.3049L9.44 18.0349C8.36222 17.7647 7.37104 17.2244 6.56 16.4649V16.4549C6.51525 16.4103 6.47975 16.3573 6.45552 16.299C6.43129 16.2406 6.41882 16.1781 6.41882 16.1149C6.41882 16.0517 6.43129 15.9892 6.45552 15.9308C6.47975 15.8725 6.51525 15.8195 6.56 15.7749L7.56 14.8049C7.65081 14.7198 7.77057 14.6725 7.895 14.6725C8.01943 14.6725 8.13919 14.7198 8.23 14.8049C9.14 15.6649 10.36 16.1449 11.62 16.1249C12.92 16.1249 13.79 15.5749 13.79 14.7049C13.79 13.8349 12.91 13.6049 11.25 12.9849C9.49 12.3549 7.82 11.4649 7.82 9.38488C7.82 6.96488 9.83 5.78488 12.21 5.67488L12.46 4.44488C12.4833 4.33557 12.5439 4.2378 12.6316 4.16843C12.7192 4.09906 12.8283 4.06244 12.94 4.06488H14.72L14.82 4.07488C15.08 4.13488 15.25 4.38488 15.19 4.64488L14.92 6.01488C15.82 6.31488 16.67 6.78488 17.4 7.40488L17.42 7.42488C17.61 7.62488 17.61 7.92488 17.42 8.10488Z" fill="#00AA00"/>
    </g>
    <defs>
        <clipPath id="clip0_107_38">
            <rect width="24" height="24" fill="white"/>
        </clipPath>
    </defs>
</svg>
