<svg width="25" height="25" viewBox="0 0 25 25" fill="none" xmlns="http://www.w3.org/2000/svg">
    <path d="M21.4844 2.73438H3.51562C3.0835 2.73438 2.73438 3.0835 2.73438 3.51562V21.4844C2.73438 21.9165 3.0835 22.2656 3.51562 22.2656H21.4844C21.9165 22.2656 22.2656 21.9165 22.2656 21.4844V3.51562C22.2656 3.0835 21.9165 2.73438 21.4844 2.73438ZM20.5078 20.5078H4.49219V4.49219H20.5078V20.5078ZM7.44141 12.793H8.6792C8.76953 12.793 8.84521 12.7197 8.84521 12.627V10.7007C8.84521 10.2197 9.2334 9.83154 9.71191 9.83154H14.7339V11.1353C14.7339 11.2744 14.8926 11.3501 15 11.2646L17.6636 9.17236C17.749 9.10645 17.749 8.97705 17.6636 8.91113L15 6.81885C14.8926 6.7334 14.7339 6.81152 14.7339 6.94824V8.25195H9.70947C8.36426 8.25195 7.27539 9.3457 7.27539 10.6958V12.6221C7.27539 12.7197 7.34863 12.793 7.44141 12.793ZM7.33887 16.0864L10.0024 18.1787C10.1099 18.2642 10.2686 18.186 10.2686 18.0493V16.7456H15.2905C16.6357 16.7456 17.7246 15.6519 17.7246 14.3018V12.3755C17.7246 12.2852 17.6514 12.2095 17.5586 12.2095H16.3208C16.2305 12.2095 16.1548 12.2827 16.1548 12.3755V14.3018C16.1548 14.7827 15.7666 15.1709 15.2881 15.1709H10.2686V13.8672C10.2686 13.728 10.1099 13.6523 10.0024 13.7378L7.33887 15.8301C7.25342 15.8911 7.25342 16.0205 7.33887 16.0864Z" fill="#F8F8F8"/>
</svg>
