<svg width="25" height="25" viewBox="0 0 25 25" fill="none" xmlns="http://www.w3.org/2000/svg">
<path d="M11.7187 9.375H13.2812V23.4375H11.7187V9.375ZM8.85148 14.2344C8.27733 13.7214 7.81797 13.093 7.50345 12.3902C7.18894 11.6874 7.02637 10.9262 7.02637 10.1562C7.02637 9.38632 7.18894 8.62506 7.50345 7.9223C7.81797 7.21954 8.27733 6.5911 8.85148 6.07812L9.89835 7.24219C9.48788 7.60861 9.15945 8.05762 8.93457 8.55981C8.7097 9.06199 8.59345 9.60602 8.59345 10.1562C8.59345 10.7065 8.7097 11.2505 8.93457 11.7527C9.15945 12.2549 9.48788 12.7039 9.89835 13.0703L8.85148 14.2344ZM16.1484 14.2344L15.1015 13.0703C15.5119 12.7039 15.8404 12.2549 16.0653 11.7527C16.2901 11.2505 16.4064 10.7065 16.4064 10.1562C16.4064 9.60602 16.2901 9.06199 16.0653 8.55981C15.8404 8.05762 15.5119 7.60861 15.1015 7.24219L16.1484 6.07812C16.7225 6.5911 17.1819 7.21954 17.4964 7.9223C17.8109 8.62506 17.9735 9.38632 17.9735 10.1562C17.9735 10.9262 17.8109 11.6874 17.4964 12.3902C17.1819 13.093 16.7225 13.7214 16.1484 14.2344Z" fill="#fff"/>
<path d="M6.5625 17.0312C5.49519 16.2308 4.62891 15.1928 4.03227 13.9995C3.43562 12.8062 3.125 11.4904 3.125 10.1563C3.125 8.82211 3.43562 7.5063 4.03227 6.31301C4.62891 5.11972 5.49519 4.08173 6.5625 3.28125L7.5 4.53125C6.62675 5.18619 5.91797 6.03545 5.42981 7.01178C4.94165 7.98811 4.6875 9.06468 4.6875 10.1563C4.6875 11.2478 4.94165 12.3244 5.42981 13.3007C5.91797 14.277 6.62675 15.1263 7.5 15.7812L6.5625 17.0312ZM18.4375 17.0312L17.5 15.7812C18.3733 15.1263 19.082 14.277 19.5702 13.3007C20.0584 12.3244 20.3125 11.2478 20.3125 10.1563C20.3125 9.06468 20.0584 7.98811 19.5702 7.01178C19.082 6.03545 18.3733 5.18619 17.5 4.53125L18.4375 3.28125C19.5048 4.08173 20.3711 5.11972 20.9677 6.31301C21.5644 7.5063 21.875 8.82211 21.875 10.1563C21.875 11.4904 21.5644 12.8062 20.9677 13.9995C20.3711 15.1928 19.5048 16.2308 18.4375 17.0312Z" fill="#fff"/>
</svg>
