<svg width="25" height="25" viewBox="0 0 25 25" fill="none" xmlns="http://www.w3.org/2000/svg">
<path d="M12.4998 4.16675C13.6049 4.16675 14.6647 4.60573 15.4461 5.38714C16.2275 6.16854 16.6665 7.22835 16.6665 8.33341C16.6665 9.43848 16.2275 10.4983 15.4461 11.2797C14.6647 12.0611 13.6049 12.5001 12.4998 12.5001C11.3948 12.5001 10.335 12.0611 9.55356 11.2797C8.77216 10.4983 8.33317 9.43848 8.33317 8.33341C8.33317 7.22835 8.77216 6.16854 9.55356 5.38714C10.335 4.60573 11.3948 4.16675 12.4998 4.16675ZM12.4998 14.5834C17.104 14.5834 20.8332 16.448 20.8332 18.7501V20.8334H4.1665V18.7501C4.1665 16.448 7.89567 14.5834 12.4998 14.5834Z" fill="white"/>
</svg>
