<svg width="19.625" height="19.625" viewBox="0 0 80 80" fill="none" xmlns="http://www.w3.org/2000/svg">
<g clip-path="url(#clip0_163_2)">
<path fill-rule="evenodd" clip-rule="evenodd" d="M51.6 1.25711C51.2076 0.836046 50.7345 0.498319 50.2088 0.26408C49.6831 0.0298397 49.1156 -0.0961136 48.5401 -0.106267C47.9647 -0.11642 47.3931 -0.0105645 46.8594 0.204984C46.3258 0.420533 45.841 0.741359 45.4341 1.14832C45.0271 1.55529 44.7063 2.04005 44.4907 2.5737C44.2752 3.10735 44.1693 3.67894 44.1795 4.25439C44.1896 4.82983 44.3156 5.39734 44.5498 5.92305C44.7841 6.44876 45.1218 6.9219 45.5429 7.31426L49.6571 11.4285H37.1429C36.3851 11.4285 35.6584 11.7296 35.1226 12.2654C34.5867 12.8012 34.2857 13.5279 34.2857 14.2857V42.8571C34.2857 43.6149 34.5867 44.3416 35.1226 44.8774C35.6584 45.4132 36.3851 45.7143 37.1429 45.7143H53.5714V20C53.5714 19.0528 53.9477 18.1444 54.6175 17.4746C55.2872 16.8048 56.1957 16.4285 57.1429 16.4285C58.0901 16.4285 58.9985 16.8048 59.6682 17.4746C60.338 18.1444 60.7143 19.0528 60.7143 20V45.7143H77.1429C77.9006 45.7143 78.6273 45.4132 79.1632 44.8774C79.699 44.3416 80 43.6149 80 42.8571V14.2857C80 13.5279 79.699 12.8012 79.1632 12.2654C78.6273 11.7296 77.9006 11.4285 77.1429 11.4285H64.6286L68.7429 7.31426C69.4999 6.50183 69.912 5.42728 69.8924 4.31699C69.8728 3.20669 69.4231 2.14735 68.6378 1.36213C67.8526 0.576915 66.7933 0.127132 65.683 0.107542C64.5727 0.0879526 63.4981 0.500085 62.6857 1.25711L57.1429 6.79997L51.6 1.25711ZM10.5314 40H0V62.8571L10.4457 73.3028C12.5684 75.4261 15.0886 77.1105 17.8623 78.2596C20.6361 79.4087 23.6091 80.0001 26.6114 80H60C62.2733 80 64.4535 79.0969 66.0609 77.4895C67.6684 75.882 68.5714 73.7018 68.5714 71.4285C68.5714 69.1553 67.6684 66.9751 66.0609 65.3676C64.4535 63.7602 62.2733 62.8571 60 62.8571H44.1314C43.5374 64.8603 42.4329 66.6748 40.9264 68.1226C39.4198 69.5704 37.5629 70.6018 35.5376 71.1158C33.5124 71.6297 31.3883 71.6085 29.3737 71.0543C27.3591 70.5001 25.5231 69.4318 24.0457 67.9543L15.76 59.6685C15.4283 59.3369 15.1652 58.9431 14.9857 58.5097C14.8062 58.0764 14.7138 57.6119 14.7138 57.1428C14.7138 56.6738 14.8062 56.2093 14.9857 55.7759C15.1652 55.3426 15.4283 54.9488 15.76 54.6171C16.0917 54.2854 16.4854 54.0223 16.9188 53.8428C17.3522 53.6633 17.8166 53.5709 18.2857 53.5709C18.7548 53.5709 19.2193 53.6633 19.6526 53.8428C20.086 54.0223 20.4797 54.2854 20.8114 54.6171L29.0971 62.9028C29.9708 63.7718 31.1391 64.2808 32.3704 64.329C33.6017 64.3772 34.8062 63.961 35.7452 63.163C36.6841 62.365 37.289 61.2433 37.4399 60.0203C37.5908 58.7974 37.2768 57.5623 36.56 56.56L26.6971 46.6971C24.5745 44.5738 22.0543 42.8895 19.2805 41.7404C16.5068 40.5913 13.5338 39.9999 10.5314 40Z" fill="white"/>
</g>
<defs>
<clipPath id="clip0_163_2">
<rect width="80" height="80" fill="white"/>
</clipPath>
</defs>
</svg>
