<svg width="25" height="25" viewBox="0 0 25 25" fill="none" xmlns="http://www.w3.org/2000/svg">
<path d="M12.5 1.5625C6.45996 1.5625 1.5625 6.45996 1.5625 12.5C1.5625 18.54 6.45996 23.4375 12.5 23.4375C18.54 23.4375 23.4375 18.54 23.4375 12.5C23.4375 6.45996 18.54 1.5625 12.5 1.5625ZM12.5 21.582C7.48535 21.582 3.41797 17.5146 3.41797 12.5C3.41797 10.3271 4.18213 8.33008 5.45654 6.76758L18.2324 19.5435C16.6699 20.8179 14.6729 21.582 12.5 21.582ZM19.5435 18.2324L6.76758 5.45654C8.33008 4.18213 10.3271 3.41797 12.5 3.41797C17.5146 3.41797 21.582 7.48535 21.582 12.5C21.582 14.6729 20.8179 16.6699 19.5435 18.2324Z" fill="white"/>
</svg>
