<svg xmlns="http://www.w3.org/2000/svg" width="29.74" height="23.882" viewBox="0 0 29.74 23.882">
  <g id="eyes_8162" data-name="hidden 8162" transform="translate(-287.93 0.501)">
    <path id="Icon_awesome-eye-slash" data-name="Icon awesome-eye-slash" d="M14.3,17.874a6.411,6.411,0,0,1-6.386-5.948L3.226,8.3a14.894,14.894,0,0,0-1.641,2.484,1.446,1.446,0,0,0,0,1.3A14.333,14.333,0,0,0,14.3,20.019a13.88,13.88,0,0,0,3.481-.467l-2.319-1.794A6.441,6.441,0,0,1,14.3,17.874Zm14.023,2.6-4.94-3.818a14.8,14.8,0,0,0,3.631-4.561,1.446,1.446,0,0,0,0-1.3A14.332,14.332,0,0,0,14.3,2.86,13.77,13.77,0,0,0,7.716,4.544L2.031.151a.715.715,0,0,0-1,.126L.151,1.405a.715.715,0,0,0,.126,1l26.291,20.32a.715.715,0,0,0,1-.126l.878-1.129a.715.715,0,0,0-.126-1Zm-8.21-6.345-1.756-1.358a4.234,4.234,0,0,0-5.188-5.449,2.129,2.129,0,0,1,.416,1.261,2.084,2.084,0,0,1-.069.447L10.226,6.484A6.359,6.359,0,0,1,14.3,5a6.431,6.431,0,0,1,6.435,6.435,6.282,6.282,0,0,1-.621,2.686Z" transform="translate(288.5 0)" fill="#eaeaea" stroke="rgba(0,0,0,0)" stroke-miterlimit="10" stroke-width="1"/>
    <path id="Icon_awesome-eye" data-name="Icon awesome-eye" d="M25.346,12.354A14.2,14.2,0,0,0,12.75,4.5a14.2,14.2,0,0,0-12.6,7.854,1.432,1.432,0,0,0,0,1.292A14.2,14.2,0,0,0,12.75,21.5a14.2,14.2,0,0,0,12.6-7.854A1.432,1.432,0,0,0,25.346,12.354Zm-12.6,7.021A6.375,6.375,0,1,1,19.125,13,6.375,6.375,0,0,1,12.75,19.375Zm0-10.625a4.219,4.219,0,0,0-1.12.168A2.118,2.118,0,0,1,8.668,11.88,4.24,4.24,0,1,0,12.75,8.75Z" transform="translate(290.05 -1.56)" fill="#eaeaea" stroke="rgba(0,0,0,0)" stroke-miterlimit="10" stroke-width="1" opacity="0"/>
  </g>
</svg>
