<svg width="25" height="25" viewBox="0 0 25 25" fill="none" xmlns="http://www.w3.org/2000/svg">
  <g clip-path="url(#clip0_110_42)">
    <path d="M21.875 7.8125C22.2894 7.8125 22.6868 7.97712 22.9799 8.27015C23.2729 8.56317 23.4375 8.9606 23.4375 9.375V17.1875C23.4375 17.6019 23.2729 17.9993 22.9799 18.2924C22.6868 18.5854 22.2894 18.75 21.875 18.75H3.125C2.7106 18.75 2.31317 18.5854 2.02015 18.2924C1.72712 17.9993 1.5625 17.6019 1.5625 17.1875V9.375C1.5625 8.9606 1.72712 8.56317 2.02015 8.27015C2.31317 7.97712 2.7106 7.8125 3.125 7.8125H21.875ZM3.125 6.25C2.2962 6.25 1.50134 6.57924 0.915291 7.16529C0.32924 7.75134 0 8.5462 0 9.375L0 17.1875C0 18.0163 0.32924 18.8112 0.915291 19.3972C1.50134 19.9833 2.2962 20.3125 3.125 20.3125H21.875C22.7038 20.3125 23.4987 19.9833 24.0847 19.3972C24.6708 18.8112 25 18.0163 25 17.1875V9.375C25 8.5462 24.6708 7.75134 24.0847 7.16529C23.4987 6.57924 22.7038 6.25 21.875 6.25H3.125Z" fill="#F8F8F8"/>
    <path d="M20.3125 16.0156C20.3125 15.912 20.3537 15.8127 20.4269 15.7394C20.5002 15.6662 20.5995 15.625 20.7031 15.625H21.4844C21.588 15.625 21.6873 15.6662 21.7606 15.7394C21.8338 15.8127 21.875 15.912 21.875 16.0156V16.7969C21.875 16.9005 21.8338 16.9998 21.7606 17.0731C21.6873 17.1463 21.588 17.1875 21.4844 17.1875H20.7031C20.5995 17.1875 20.5002 17.1463 20.4269 17.0731C20.3537 16.9998 20.3125 16.9005 20.3125 16.7969V16.0156ZM20.3125 12.8906C20.3125 12.787 20.3537 12.6877 20.4269 12.6144C20.5002 12.5412 20.5995 12.5 20.7031 12.5H21.4844C21.588 12.5 21.6873 12.5412 21.7606 12.6144C21.8338 12.6877 21.875 12.787 21.875 12.8906V13.6719C21.875 13.7755 21.8338 13.8748 21.7606 13.9481C21.6873 14.0213 21.588 14.0625 21.4844 14.0625H20.7031C20.5995 14.0625 20.5002 14.0213 20.4269 13.9481C20.3537 13.8748 20.3125 13.7755 20.3125 13.6719V12.8906ZM12.5 12.8906C12.5 12.787 12.5412 12.6877 12.6144 12.6144C12.6877 12.5412 12.787 12.5 12.8906 12.5H13.6719C13.7755 12.5 13.8748 12.5412 13.9481 12.6144C14.0213 12.6877 14.0625 12.787 14.0625 12.8906V13.6719C14.0625 13.7755 14.0213 13.8748 13.9481 13.9481C13.8748 14.0213 13.7755 14.0625 13.6719 14.0625H12.8906C12.787 14.0625 12.6877 14.0213 12.6144 13.9481C12.5412 13.8748 12.5 13.7755 12.5 13.6719V12.8906ZM15.625 12.8906C15.625 12.787 15.6662 12.6877 15.7394 12.6144C15.8127 12.5412 15.912 12.5 16.0156 12.5H18.3594C18.463 12.5 18.5623 12.5412 18.6356 12.6144C18.7088 12.6877 18.75 12.787 18.75 12.8906V13.6719C18.75 13.7755 18.7088 13.8748 18.6356 13.9481C18.5623 14.0213 18.463 14.0625 18.3594 14.0625H16.0156C15.912 14.0625 15.8127 14.0213 15.7394 13.9481C15.6662 13.8748 15.625 13.7755 15.625 13.6719V12.8906ZM17.1875 16.0156C17.1875 15.912 17.2287 15.8127 17.3019 15.7394C17.3752 15.6662 17.4745 15.625 17.5781 15.625H18.3594C18.463 15.625 18.5623 15.6662 18.6356 15.7394C18.7088 15.8127 18.75 15.912 18.75 16.0156V16.7969C18.75 16.9005 18.7088 16.9998 18.6356 17.0731C18.5623 17.1463 18.463 17.1875 18.3594 17.1875H17.5781C17.4745 17.1875 17.3752 17.1463 17.3019 17.0731C17.2287 16.9998 17.1875 16.9005 17.1875 16.7969V16.0156ZM9.375 12.8906C9.375 12.787 9.41615 12.6877 9.48941 12.6144C9.56267 12.5412 9.66202 12.5 9.76562 12.5H10.5469C10.6505 12.5 10.7498 12.5412 10.8231 12.6144C10.8963 12.6877 10.9375 12.787 10.9375 12.8906V13.6719C10.9375 13.7755 10.8963 13.8748 10.8231 13.9481C10.7498 14.0213 10.6505 14.0625 10.5469 14.0625H9.76562C9.66202 14.0625 9.56267 14.0213 9.48941 13.9481C9.41615 13.8748 9.375 13.7755 9.375 13.6719V12.8906ZM6.25 12.8906C6.25 12.787 6.29115 12.6877 6.36441 12.6144C6.43767 12.5412 6.53702 12.5 6.64062 12.5H7.42188C7.52548 12.5 7.62483 12.5412 7.69809 12.6144C7.77135 12.6877 7.8125 12.787 7.8125 12.8906V13.6719C7.8125 13.7755 7.77135 13.8748 7.69809 13.9481C7.62483 14.0213 7.52548 14.0625 7.42188 14.0625H6.64062C6.53702 14.0625 6.43767 14.0213 6.36441 13.9481C6.29115 13.8748 6.25 13.7755 6.25 13.6719V12.8906ZM3.125 12.8906C3.125 12.787 3.16616 12.6877 3.23941 12.6144C3.31267 12.5412 3.41202 12.5 3.51562 12.5H4.29688C4.40048 12.5 4.49983 12.5412 4.57309 12.6144C4.64634 12.6877 4.6875 12.787 4.6875 12.8906V13.6719C4.6875 13.7755 4.64634 13.8748 4.57309 13.9481C4.49983 14.0213 4.40048 14.0625 4.29688 14.0625H3.51562C3.41202 14.0625 3.31267 14.0213 3.23941 13.9481C3.16616 13.8748 3.125 13.7755 3.125 13.6719V12.8906ZM20.3125 9.76562C20.3125 9.66202 20.3537 9.56267 20.4269 9.48941C20.5002 9.41615 20.5995 9.375 20.7031 9.375H21.4844C21.588 9.375 21.6873 9.41615 21.7606 9.48941C21.8338 9.56267 21.875 9.66202 21.875 9.76562V10.5469C21.875 10.6505 21.8338 10.7498 21.7606 10.8231C21.6873 10.8963 21.588 10.9375 21.4844 10.9375H20.7031C20.5995 10.9375 20.5002 10.8963 20.4269 10.8231C20.3537 10.7498 20.3125 10.6505 20.3125 10.5469V9.76562ZM17.1875 9.76562C17.1875 9.66202 17.2287 9.56267 17.3019 9.48941C17.3752 9.41615 17.4745 9.375 17.5781 9.375H18.3594C18.463 9.375 18.5623 9.41615 18.6356 9.48941C18.7088 9.56267 18.75 9.66202 18.75 9.76562V10.5469C18.75 10.6505 18.7088 10.7498 18.6356 10.8231C18.5623 10.8963 18.463 10.9375 18.3594 10.9375H17.5781C17.4745 10.9375 17.3752 10.8963 17.3019 10.8231C17.2287 10.7498 17.1875 10.6505 17.1875 10.5469V9.76562ZM14.0625 9.76562C14.0625 9.66202 14.1037 9.56267 14.1769 9.48941C14.2502 9.41615 14.3495 9.375 14.4531 9.375H15.2344C15.338 9.375 15.4373 9.41615 15.5106 9.48941C15.5838 9.56267 15.625 9.66202 15.625 9.76562V10.5469C15.625 10.6505 15.5838 10.7498 15.5106 10.8231C15.4373 10.8963 15.338 10.9375 15.2344 10.9375H14.4531C14.3495 10.9375 14.2502 10.8963 14.1769 10.8231C14.1037 10.7498 14.0625 10.6505 14.0625 10.5469V9.76562ZM10.9375 9.76562C10.9375 9.66202 10.9787 9.56267 11.0519 9.48941C11.1252 9.41615 11.2245 9.375 11.3281 9.375H12.1094C12.213 9.375 12.3123 9.41615 12.3856 9.48941C12.4588 9.56267 12.5 9.66202 12.5 9.76562V10.5469C12.5 10.6505 12.4588 10.7498 12.3856 10.8231C12.3123 10.8963 12.213 10.9375 12.1094 10.9375H11.3281C11.2245 10.9375 11.1252 10.8963 11.0519 10.8231C10.9787 10.7498 10.9375 10.6505 10.9375 10.5469V9.76562ZM7.8125 9.76562C7.8125 9.66202 7.85365 9.56267 7.92691 9.48941C8.00017 9.41615 8.09952 9.375 8.20312 9.375H8.98438C9.08798 9.375 9.18733 9.41615 9.26059 9.48941C9.33385 9.56267 9.375 9.66202 9.375 9.76562V10.5469C9.375 10.6505 9.33385 10.7498 9.26059 10.8231C9.18733 10.8963 9.08798 10.9375 8.98438 10.9375H8.20312C8.09952 10.9375 8.00017 10.8963 7.92691 10.8231C7.85365 10.7498 7.8125 10.6505 7.8125 10.5469V9.76562ZM3.125 9.76562C3.125 9.66202 3.16616 9.56267 3.23941 9.48941C3.31267 9.41615 3.41202 9.375 3.51562 9.375H5.85938C5.96298 9.375 6.06233 9.41615 6.13559 9.48941C6.20884 9.56267 6.25 9.66202 6.25 9.76562V10.5469C6.25 10.6505 6.20884 10.7498 6.13559 10.8231C6.06233 10.8963 5.96298 10.9375 5.85938 10.9375H3.51562C3.41202 10.9375 3.31267 10.8963 3.23941 10.8231C3.16616 10.7498 3.125 10.6505 3.125 10.5469V9.76562ZM3.125 16.0156C3.125 15.912 3.16616 15.8127 3.23941 15.7394C3.31267 15.6662 3.41202 15.625 3.51562 15.625H4.29688C4.40048 15.625 4.49983 15.6662 4.57309 15.7394C4.64634 15.8127 4.6875 15.912 4.6875 16.0156V16.7969C4.6875 16.9005 4.64634 16.9998 4.57309 17.0731C4.49983 17.1463 4.40048 17.1875 4.29688 17.1875H3.51562C3.41202 17.1875 3.31267 17.1463 3.23941 17.0731C3.16616 16.9998 3.125 16.9005 3.125 16.7969V16.0156ZM6.25 16.0156C6.25 15.912 6.29115 15.8127 6.36441 15.7394C6.43767 15.6662 6.53702 15.625 6.64062 15.625H15.2344C15.338 15.625 15.4373 15.6662 15.5106 15.7394C15.5838 15.8127 15.625 15.912 15.625 16.0156V16.7969C15.625 16.9005 15.5838 16.9998 15.5106 17.0731C15.4373 17.1463 15.338 17.1875 15.2344 17.1875H6.64062C6.53702 17.1875 6.43767 17.1463 6.36441 17.0731C6.29115 16.9998 6.25 16.9005 6.25 16.7969V16.0156Z" fill="#F8F8F8"/>
  </g>
  <defs>
    <clipPath id="clip0_110_42">
      <rect width="25" height="25" fill="white"/>
    </clipPath>
  </defs>
</svg>
