<svg width="25" height="25" viewBox="0 0 25 25" fill="none" xmlns="http://www.w3.org/2000/svg">
  <path d="M22.9168 12.5002C22.9168 18.2533 18.2533 22.9168 12.5002 22.9168C6.74704 22.9168 2.0835 18.2533 2.0835 12.5002C2.0835 6.74704 6.74704 2.0835 12.5002 2.0835V4.16683C10.5405 4.16698 8.64365 4.85773 7.14278 6.11769C5.64191 7.37766 4.63308 9.12625 4.29353 11.0562C3.95399 12.9862 4.30545 14.9741 5.28616 16.6707C6.26688 18.3672 7.81412 19.6639 9.65602 20.3329C11.4979 21.0019 13.5167 21.0003 15.3575 20.3285C17.1984 19.6568 18.7437 18.3577 19.7218 16.6597C20.6999 14.9616 21.0484 12.9732 20.7059 11.0437C20.3634 9.11427 19.3519 7.36722 17.8491 6.10954L15.6252 8.3335V2.0835H21.8752L19.3262 4.63245C20.4543 5.60932 21.3589 6.81761 21.9785 8.17521C22.5981 9.5328 22.9181 11.0079 22.9168 12.5002Z" fill="#F8F8F8"/>
</svg>
