<svg width="24" height="24" viewBox="0 0 24 24" fill="none" xmlns="http://www.w3.org/2000/svg">
  <path d="M12 14C12.394 14 12.7841 13.9224 13.1481 13.7716C13.512 13.6209 13.8427 13.3999 14.1213 13.1213C14.3999 12.8427 14.6209 12.512 14.7716 12.1481C14.9224 11.7841 15 11.394 15 11M12 14C11.2044 14 10.4413 13.6839 9.87868 13.1213C9.31607 12.5587 9 11.7956 9 11M12 14V17M15 11C15 10.606 14.9224 10.2159 14.7716 9.85195C14.6209 9.48797 14.3999 9.15726 14.1213 8.87868C13.8427 8.6001 13.512 8.37913 13.1481 8.22836C12.7841 8.0776 12.394 8 12 8M15 11H18M12 8C11.2044 8 10.4413 8.31607 9.87868 8.87868C9.31607 9.44129 9 10.2044 9 11M12 8V5M9 11H6M8 7L10 9M14 13L16 15M16 7L14 9M10 13L8 15M12 22C12 22 3 18 3 11V5L12 2L21 5V11C21 18 12 22 12 22Z" stroke="#F8F8F8" stroke-width="2"/>
</svg>
