<svg width="27" height="18" viewBox="0 0 27 18" fill="none" xmlns="http://www.w3.org/2000/svg">
<g clip-path="url(#clip0_89_2)">
<path d="M25.858 8.354C24.6873 6.01033 22.891 4.03622 20.668 2.65007C18.4449 1.26393 15.8817 0.519793 13.262 0.5C10.6416 0.519057 8.07756 1.26285 5.85373 2.64903C3.62991 4.03522 1.83303 6.00973 0.662001 8.354C0.560759 8.55429 0.508011 8.77557 0.508011 9C0.508011 9.22443 0.560759 9.44571 0.662001 9.646C1.83303 11.9903 3.62991 13.9648 5.85373 15.351C8.07756 16.7372 10.6416 17.4809 13.262 17.5C15.8824 17.4809 18.4464 16.7372 20.6703 15.351C22.8941 13.9648 24.691 11.9903 25.862 9.646C25.9626 9.4454 26.0147 9.22395 26.014 8.99952C26.0133 8.7751 25.9599 8.55398 25.858 8.354V8.354ZM13.258 15.375C11.9973 15.3742 10.7652 14.9997 9.71733 14.2987C8.66949 13.5977 7.85302 12.6018 7.37112 11.4368C6.88923 10.2719 6.76355 8.99021 7.00998 7.75385C7.25642 6.51748 7.86389 5.38194 8.75561 4.49078C9.64733 3.59962 10.7833 2.99286 12.0198 2.7472C13.2563 2.50155 14.5379 2.62803 15.7025 3.11065C16.8672 3.59328 17.8626 4.41038 18.5629 5.45866C19.2632 6.50693 19.637 7.73931 19.637 9C19.637 10.6908 18.9654 12.3123 17.7698 13.5078C16.5743 14.7033 14.9528 15.375 13.262 15.375H13.258ZM13.258 4.75C12.8788 4.75541 12.5021 4.81192 12.138 4.918C12.4368 5.32578 12.5799 5.82699 12.5414 6.33106C12.503 6.83513 12.2855 7.30882 11.9282 7.66653C11.571 8.02424 11.0976 8.24238 10.5936 8.28153C10.0896 8.32068 9.58818 8.17826 9.18 7.88C8.94782 8.73598 8.9899 9.64322 9.30033 10.474C9.61075 11.3048 10.1739 12.0174 10.9105 12.5114C11.6471 13.0054 12.52 13.256 13.4065 13.2279C14.293 13.1997 15.1483 12.8944 15.8521 12.3547C16.5559 11.815 17.0728 11.0682 17.33 10.2194C17.5871 9.37061 17.5717 8.46253 17.2857 7.62298C16.9998 6.78343 16.4578 6.05468 15.736 5.53931C15.0142 5.02394 14.1489 4.74788 13.262 4.75H13.258Z" fill="#EAEAEA"/>
</g>
<defs>
<clipPath id="clip0_89_2">
<rect width="26.524" height="18" fill="white"/>
</clipPath>
</defs>
</svg>
