<svg width="25" height="25" viewBox="0 0 25 25" fill="none" xmlns="http://www.w3.org/2000/svg">
  <path d="M3.125 7.03107H14.1968C14.3584 7.48786 14.6577 7.88332 15.0534 8.16302C15.4491 8.44272 15.9217 8.5929 16.4062 8.5929C16.8908 8.5929 17.3634 8.44272 17.7591 8.16302C18.1548 7.88332 18.4541 7.48786 18.6157 7.03107H21.875C22.0822 7.03107 22.2809 6.94876 22.4274 6.80225C22.5739 6.65574 22.6562 6.45702 22.6562 6.24982C22.6562 6.04262 22.5739 5.84391 22.4274 5.69739C22.2809 5.55088 22.0822 5.46857 21.875 5.46857H18.6157C18.4541 5.01178 18.1548 4.61632 17.7591 4.33662C17.3634 4.05692 16.8908 3.90674 16.4062 3.90674C15.9217 3.90674 15.4491 4.05692 15.0534 4.33662C14.6577 4.61632 14.3584 5.01178 14.1968 5.46857H3.125C2.9178 5.46857 2.71909 5.55088 2.57257 5.69739C2.42606 5.84391 2.34375 6.04262 2.34375 6.24982C2.34375 6.45702 2.42606 6.65574 2.57257 6.80225C2.71909 6.94876 2.9178 7.03107 3.125 7.03107ZM21.875 17.9686H18.6157C18.4541 17.5118 18.1548 17.1163 17.7591 16.8366C17.3634 16.5569 16.8908 16.4067 16.4062 16.4067C15.9217 16.4067 15.4491 16.5569 15.0534 16.8366C14.6577 17.1163 14.3584 17.5118 14.1968 17.9686H3.125C2.9178 17.9686 2.71909 18.0509 2.57257 18.1974C2.42606 18.3439 2.34375 18.5426 2.34375 18.7498C2.34375 18.957 2.42606 19.1557 2.57257 19.3022C2.71909 19.4488 2.9178 19.5311 3.125 19.5311H14.1968C14.3584 19.9879 14.6577 20.3833 15.0534 20.663C15.4491 20.9427 15.9217 21.0929 16.4062 21.0929C16.8908 21.0929 17.3634 20.9427 17.7591 20.663C18.1548 20.3833 18.4541 19.9879 18.6157 19.5311H21.875C22.0822 19.5311 22.2809 19.4488 22.4274 19.3022C22.5739 19.1557 22.6562 18.957 22.6562 18.7498C22.6562 18.5426 22.5739 18.3439 22.4274 18.1974C22.2809 18.0509 22.0822 17.9686 21.875 17.9686ZM21.875 11.7186H10.8032C10.6416 11.2618 10.3423 10.8663 9.94663 10.5866C9.55095 10.3069 9.0783 10.1567 8.59375 10.1567C8.1092 10.1567 7.63655 10.3069 7.24087 10.5866C6.8452 10.8663 6.54593 11.2618 6.38428 11.7186H3.125C2.9178 11.7186 2.71909 11.8009 2.57257 11.9474C2.42606 12.0939 2.34375 12.2926 2.34375 12.4998C2.34375 12.707 2.42606 12.9057 2.57257 13.0522C2.71909 13.1988 2.9178 13.2811 3.125 13.2811H6.38428C6.54593 13.7379 6.8452 14.1333 7.24087 14.413C7.63655 14.6927 8.1092 14.8429 8.59375 14.8429C9.0783 14.8429 9.55095 14.6927 9.94663 14.413C10.3423 14.1333 10.6416 13.7379 10.8032 13.2811H21.875C22.0822 13.2811 22.2809 13.1988 22.4274 13.0522C22.5739 12.9057 22.6562 12.707 22.6562 12.4998C22.6562 12.2926 22.5739 12.0939 22.4274 11.9474C22.2809 11.8009 22.0822 11.7186 21.875 11.7186Z" fill="#F8F8F8"/>
</svg>
