<svg width="25" height="25" viewBox="0 0 25 25" fill="none" xmlns="http://www.w3.org/2000/svg">
<g clip-path="url(#clip0_119_181)">
<path d="M3.66278 21.3375C2.4689 20.1845 1.51663 18.8051 0.861515 17.2801C0.206402 15.755 -0.138426 14.1148 -0.152848 12.4551C-0.167271 10.7953 0.149 9.14932 0.777511 7.61311C1.40602 6.07691 2.33419 4.68126 3.50784 3.5076C4.6815 2.33394 6.07715 1.40578 7.61336 0.777267C9.14956 0.148756 10.7956 -0.167515 12.4553 -0.153092C14.115 -0.13867 15.7553 0.206158 17.2803 0.861271C18.8054 1.51638 20.1847 2.46866 21.3378 3.66254C23.6148 6.02007 24.8747 9.17759 24.8462 12.4551C24.8177 15.7325 23.5031 18.8677 21.1855 21.1853C18.8679 23.5029 15.7328 24.8175 12.4553 24.846C9.17784 24.8744 6.02031 23.6145 3.66278 21.3375ZM5.42528 19.575C7.30169 21.4514 9.84664 22.5056 12.5003 22.5056C15.1539 22.5056 17.6989 21.4514 19.5753 19.575C21.4517 17.6986 22.5058 15.1537 22.5058 12.5C22.5058 9.8464 21.4517 7.30144 19.5753 5.42504C17.6989 3.54863 15.1539 2.49448 12.5003 2.49448C9.84664 2.49448 7.30169 3.54863 5.42528 5.42504C3.54888 7.30144 2.49472 9.8464 2.49472 12.5C2.49472 15.1537 3.54888 17.6986 5.42528 19.575ZM17.8003 8.96254L14.2628 12.5L17.8003 16.0375L16.0378 17.8L12.5003 14.2625L8.96278 17.8L7.20028 16.0375L10.7378 12.5L7.20028 8.96254L8.96278 7.20004L12.5003 10.7375L16.0378 7.20004L17.8003 8.96254Z" fill="white"/>
</g>
<defs>
<clipPath id="clip0_119_181">
<rect width="25" height="25" fill="white"/>
</clipPath>
</defs>
</svg>
