<svg width="25" height="25" viewBox="0 0 25 25" fill="none" xmlns="http://www.w3.org/2000/svg">
<path d="M12.5007 3.125C13.6057 3.125 14.6655 3.56399 15.4469 4.34539C16.2283 5.12679 16.6673 6.1866 16.6673 7.29167C16.6673 8.05208 16.4694 8.76042 16.1048 9.375H18.7507C19.7402 9.375 20.5736 10.0729 20.7819 11C22.8757 19.3438 22.9173 19.5625 22.9173 19.7917C22.9173 20.3442 22.6978 20.8741 22.3071 21.2648C21.9164 21.6555 21.3865 21.875 20.834 21.875H4.16732C3.61478 21.875 3.08488 21.6555 2.69418 21.2648C2.30348 20.8741 2.08398 20.3442 2.08398 19.7917C2.08398 19.5625 2.12565 19.3438 4.2194 11C4.42773 10.0729 5.26107 9.375 6.25065 9.375H8.89648C8.5246 8.74396 8.33024 8.02412 8.33398 7.29167C8.33398 6.1866 8.77297 5.12679 9.55437 4.34539C10.3358 3.56399 11.3956 3.125 12.5007 3.125ZM12.5007 5.20833C11.9481 5.20833 11.4182 5.42783 11.0275 5.81853C10.6368 6.20923 10.4173 6.73913 10.4173 7.29167C10.4173 7.8442 10.6368 8.3741 11.0275 8.76481C11.4182 9.15551 11.9481 9.375 12.5007 9.375C13.0532 9.375 13.5831 9.15551 13.9738 8.76481C14.3645 8.3741 14.584 7.8442 14.584 7.29167C14.584 6.73913 14.3645 6.20923 13.9738 5.81853C13.5831 5.42783 13.0532 5.20833 12.5007 5.20833ZM6.25065 11.4583V19.7917H8.33398V17.1875L9.37565 18.2292V19.7917H11.459V17.7083L9.37565 15.625L11.459 13.5417V11.4583H9.37565V13.0208L8.33398 14.0625V11.4583H6.25065ZM15.6257 11.4583C14.4694 11.4583 13.5423 12.3854 13.5423 13.5417V17.7083C13.5423 18.8646 14.4694 19.7917 15.6257 19.7917H18.7507V14.5833H16.6673V17.7083H15.6257V13.5417H18.7507V11.4583H15.6257Z" fill="white"/>
</svg>
