<svg width="25" height="25" viewBox="0 0 25 25" fill="none" xmlns="http://www.w3.org/2000/svg">
<path d="M11.4375 1.87354L3.14531 7.05322H2.34375C1.91406 7.05322 1.5625 7.40479 1.5625 7.83447C1.5625 8.26416 1.91406 8.61494 2.34297 8.61572V10.1782C1.91328 10.1782 1.5625 10.5298 1.5625 10.9595C1.5625 11.3892 1.91406 11.7407 2.34375 11.7407H3.125V19.5532C2.90882 19.5615 2.70425 19.6532 2.55422 19.8091C2.40419 19.9649 2.32036 20.1728 2.32031 20.3892V21.1157H2.39844C1.9375 21.1157 1.5625 21.4907 1.5625 21.9517V22.6782H23.4297V21.9517C23.4297 21.4907 23.0547 21.1157 22.5938 21.1157H22.6562V20.3892C22.6563 20.1769 22.5756 19.9725 22.4305 19.8176C22.2854 19.6626 22.0868 19.5687 21.875 19.5548V11.7399H22.6562C23.0859 11.7399 23.4375 11.3884 23.4375 10.9587C23.4375 10.529 23.0859 10.1774 22.6562 10.1774L22.6555 8.61494C23.0852 8.61494 23.4375 8.26338 23.4375 7.83369C23.4375 7.404 23.0859 7.05244 22.6562 7.05244H21.8859L13.5937 1.87354C12.9375 1.45947 12.0938 1.45947 11.4375 1.87354ZM12.1094 8.27197V7.8501C11.9936 7.8345 11.8806 7.80295 11.7734 7.75635C11.5547 7.67822 11.375 7.5376 11.2344 7.3501C11.1893 7.28639 11.1673 7.20924 11.1719 7.13135C11.1719 7.104 11.1742 7.07822 11.1797 7.05322C11.2024 6.957 11.2611 6.87313 11.3438 6.81885C11.5078 6.71728 11.6875 6.74072 11.8359 6.88916C11.9142 6.97474 12.0067 7.04611 12.1094 7.1001C12.1133 7.104 12.1188 7.10557 12.125 7.10791H12.1281C12.2551 7.16415 12.3924 7.19316 12.5313 7.19307C12.7453 7.18369 12.8227 7.1165 12.8516 7.05244C12.8672 7.0165 12.8672 6.98213 12.8672 6.95869C12.8672 6.88838 12.8359 6.83369 12.7656 6.79463C12.6797 6.74775 12.5313 6.69307 12.3438 6.64619C12.265 6.62491 12.1868 6.60147 12.1094 6.57588L12.0312 6.54932C11.9593 6.52635 11.8889 6.49896 11.8203 6.46728C11.6719 6.40478 11.5469 6.31103 11.4453 6.17822C11.3359 6.04541 11.2812 5.87353 11.2812 5.65478C11.2812 5.45947 11.3359 5.29541 11.4531 5.14697C11.5547 5.00635 11.6953 4.90478 11.875 4.82666C11.9531 4.79541 12.0312 4.76416 12.1094 4.74854V4.27979C12.1094 4.09229 12.2656 3.92822 12.4609 3.92822H12.5156C12.7109 3.92822 12.8672 4.09229 12.8672 4.27979V4.77979C12.9047 4.78525 12.9375 4.79697 12.9719 4.80869L13 4.81885C13.1953 4.89697 13.3594 5.00635 13.4687 5.15479C13.5312 5.2251 13.5547 5.31103 13.5547 5.39697C13.5547 5.50635 13.5156 5.6001 13.4219 5.67041C13.2813 5.7876 13.0625 5.77197 12.9375 5.64697C12.9161 5.624 12.8925 5.60307 12.8672 5.58447C12.8234 5.53925 12.77 5.50453 12.7109 5.48291C12.6135 5.43678 12.5062 5.41531 12.3984 5.42041C12.2266 5.42041 12.1484 5.45947 12.1094 5.50635C12.0781 5.54541 12.0781 5.59228 12.0781 5.62353C12.0781 5.6626 12.0859 5.70166 12.1094 5.73291C12.1094 5.74072 12.1172 5.74854 12.125 5.75635C12.1719 5.79541 12.2187 5.82666 12.2891 5.8501C12.3594 5.87353 12.4687 5.90478 12.6094 5.94385C12.6758 5.96572 12.7383 5.98369 12.7969 6.00088L12.8672 6.02197C12.9609 6.05322 13.0391 6.08447 13.1094 6.11572C13.25 6.18604 13.375 6.27979 13.4687 6.4126C13.5703 6.54541 13.625 6.71729 13.625 6.93604C13.6264 7.12349 13.5629 7.30566 13.4453 7.45166C13.3312 7.59611 13.18 7.70682 13.0078 7.77197C12.9609 7.79541 12.9141 7.81104 12.8672 7.81885V8.27197C12.8672 8.43994 12.7422 8.58213 12.575 8.61025H12.4016C12.3207 8.59734 12.2469 8.55621 12.1935 8.49415C12.14 8.4321 12.1102 8.35311 12.1094 8.27119M16.3188 7.05244C16.4594 6.36572 16.4138 5.65389 16.1867 4.99072L19.507 7.05244H16.3188ZM8.76328 5.04697C8.55147 5.69445 8.51242 6.38602 8.65 7.05322H5.53281L8.76328 5.04697ZM6.25 19.5532H5.46875V11.7407H6.25V19.5532ZM10.1562 19.5532H8.59375V11.7407H16.4062V19.5532H14.8438V14.5845C14.8438 14.311 14.6172 14.0845 14.3438 14.0845H10.6484C10.375 14.0845 10.1562 14.3032 10.1562 14.5767V19.5532ZM18.75 11.7407H19.5312V19.5532H18.75V11.7407Z" fill="black" opacity="0.5"/>
</svg>
