<svg width="25" height="25" viewBox="0 0 25 25" fill="none" xmlns="http://www.w3.org/2000/svg">
<path fill-rule="evenodd" clip-rule="evenodd" d="M8.25007 9.125C8.02792 9.332 7.73409 9.44469 7.4305 9.43934C7.1269 9.43398 6.83724 9.31099 6.62253 9.09628C6.40782 8.88158 6.28484 8.59191 6.27948 8.28832C6.27412 7.98472 6.38681 7.6909 6.59381 7.46875L11.6719 2.39062L12.5001 1.5625L13.3282 2.39062L18.4063 7.46875C18.6133 7.6909 18.726 7.98472 18.7207 8.28832C18.7153 8.59191 18.5923 8.88158 18.3776 9.09628C18.1629 9.31099 17.8732 9.43398 17.5696 9.43934C17.266 9.44469 16.9722 9.332 16.7501 9.125L13.6719 6.04687V18.75C13.6719 19.3716 13.9189 19.9677 14.3584 20.4073C14.7979 20.8468 15.3941 21.0937 16.0157 21.0938H22.2657C22.5765 21.0938 22.8746 21.2172 23.0943 21.437C23.3141 21.6568 23.4376 21.9548 23.4376 22.2656C23.4376 22.5764 23.3141 22.8745 23.0943 23.0943C22.8746 23.314 22.5765 23.4375 22.2657 23.4375H16.0157C14.7725 23.4375 13.5802 22.9436 12.7011 22.0646C11.822 21.1855 11.3282 19.9932 11.3282 18.75V6.04687L8.25007 9.125Z" fill="black"/>
</svg>
