<svg width="25" height="25" viewBox="0 0 25 25" fill="none" xmlns="http://www.w3.org/2000/svg">
<path d="M12.5 8.59375C11.7274 8.59375 10.9722 8.82285 10.3298 9.25207C9.68742 9.6813 9.18675 10.2914 8.8911 11.0051C8.59544 11.7189 8.51808 12.5043 8.66881 13.2621C8.81953 14.0198 9.19157 14.7158 9.73786 15.2621C10.2842 15.8084 10.9802 16.1805 11.7379 16.3312C12.4957 16.4819 13.2811 16.4046 13.9949 16.1089C14.7086 15.8132 15.3187 15.3126 15.7479 14.6702C16.1772 14.0278 16.4062 13.2726 16.4062 12.5C16.4062 11.464 15.9947 10.4704 15.2621 9.73786C14.5296 9.0053 13.536 8.59375 12.5 8.59375ZM12.5 14.8438C12.0365 14.8438 11.5833 14.7063 11.1979 14.4488C10.8125 14.1912 10.5121 13.8252 10.3347 13.3969C10.1573 12.9686 10.1109 12.4974 10.2013 12.0428C10.2917 11.5881 10.5149 11.1705 10.8427 10.8427C11.1705 10.5149 11.5881 10.2917 12.0428 10.2013C12.4974 10.1109 12.9686 10.1573 13.3969 10.3347C13.8252 10.5121 14.1912 10.8125 14.4488 11.1979C14.7063 11.5833 14.8438 12.0365 14.8438 12.5C14.8437 13.1216 14.5968 13.7177 14.1573 14.1573C13.7177 14.5968 13.1216 14.8437 12.5 14.8438ZM23.4375 5.46875H1.5625C1.3553 5.46875 1.15659 5.55106 1.01007 5.69757C0.86356 5.84409 0.78125 6.0428 0.78125 6.25V18.75C0.78125 18.9572 0.86356 19.1559 1.01007 19.3024C1.15659 19.4489 1.3553 19.5312 1.5625 19.5312H23.4375C23.6447 19.5312 23.8434 19.4489 23.9899 19.3024C24.1364 19.1559 24.2188 18.9572 24.2188 18.75V6.25C24.2188 6.0428 24.1364 5.84409 23.9899 5.69757C23.8434 5.55106 23.6447 5.46875 23.4375 5.46875ZM18.9111 17.9688H6.08887C5.82657 17.0816 5.34649 16.2743 4.69237 15.6201C4.03824 14.966 3.23086 14.4859 2.34375 14.2236V10.7764C3.23086 10.5141 4.03824 10.034 4.69237 9.37987C5.34649 8.72574 5.82657 7.91836 6.08887 7.03125H18.9111C19.1734 7.91836 19.6535 8.72574 20.3076 9.37987C20.9618 10.034 21.7691 10.5141 22.6562 10.7764V14.2236C21.7691 14.4859 20.9618 14.966 20.3076 15.6201C19.6535 16.2743 19.1734 17.0816 18.9111 17.9688ZM22.6562 9.11816C21.7191 8.71531 20.9722 7.96838 20.5693 7.03125H22.6562V9.11816ZM4.43066 7.03125C4.02781 7.96838 3.28088 8.71531 2.34375 9.11816V7.03125H4.43066ZM2.34375 15.8818C3.28088 16.2847 4.02781 17.0316 4.43066 17.9688H2.34375V15.8818ZM20.5693 17.9688C20.9722 17.0316 21.7191 16.2847 22.6562 15.8818V17.9688H20.5693Z" fill="black" opacity="0.5"/>
</svg>
