<svg width="40" height="40" viewBox="0 0 40 40" fill="none" xmlns="http://www.w3.org/2000/svg">
<path d="M5.99384 15.2183C5.65555 18.4205 5.31813 21.6377 4.99834 24.6878L9.79932 20.5047L15.5298 0C8.88573 0.512065 6.71275 11.0409 5.99384 15.2183ZM4.99834 24.6878L4.99816 24.6879L4.99834 24.6881V24.6877V24.6878ZM3.01208 0.398801L1.5238 0.842857C2.31823 3.41524 3.70058 5.84243 6.07705 7.5543C6.24365 7.05034 6.42844 6.55236 6.6311 6.06132C4.77852 4.60689 3.70136 2.63071 3.01217 0.398971L3.01208 0.398801ZM2.39626 6.83226L1.20418 7.81385C2.49511 9.38418 3.35815 10.7938 5.02772 11.7283C5.12878 11.1979 5.23954 10.6693 5.35995 10.1428C4.10791 9.27075 3.23588 7.82633 2.39626 6.83226ZM27.4729 7.18784L21.5663 12.3476C19.3184 11.2213 16.8197 9.67804 14.7737 8.96687C14.5924 9.44633 14.4497 9.93607 14.3123 10.4287C16.2144 11.2153 18.2076 12.2561 19.945 13.2052C22.325 14.4607 24.665 15.7205 26.6148 17.211C27.2426 17.6274 27.8685 18.0545 28.4853 18.4931C31.5643 20.6823 34.4164 23.1298 36.1704 25.5057C37.9244 27.8816 38.5521 30.0357 37.5696 31.9837L38.9631 32.6623C40.2712 30.0684 39.3525 27.2137 37.4294 24.6084C35.5061 22.0032 32.5503 19.497 29.3972 17.2549C28.2855 16.4645 27.1493 15.7091 26.025 14.9971C28.1626 11.8754 28.6161 8.97001 27.4729 7.18784ZM13.6149 12.9268L13.2016 14.4075C16.4333 15.7866 19.8605 17.4888 22.7486 19.4036C23.1106 19.6472 23.4681 19.8971 23.8209 20.1532C25.7827 21.5792 27.5346 23.1736 28.6622 24.7948C29.7898 26.416 30.2864 28.0079 29.9208 29.5871C29.447 31.6338 29.7257 33.1916 30.5442 34.2506C31.3628 35.3097 32.6086 35.7808 33.8022 35.975C34.7948 36.1364 37.2892 36.3953 38.5778 39.2538L40 38.6348C38.4073 35.1019 34.9295 34.6093 34.0564 34.4672C33.0917 34.3103 32.2708 33.9575 31.7828 33.3263C31.2949 32.6951 31.0276 31.6961 31.4373 29.9261C31.9221 27.832 31.2264 25.7729 29.9463 23.9325C28.6663 22.092 26.795 20.414 24.746 18.9245C24.3224 18.6171 23.8925 18.3179 23.4568 18.0272C23.683 17.804 23.9046 17.5764 24.1214 17.3443C22.6032 16.3638 20.8808 15.4403 19.1032 14.4993L18.4289 15.0884C16.4984 14.0978 14.7786 13.3569 13.6149 12.9267V12.9268ZM15.9527 17.2516C12.2245 20.5144 8.49076 23.7702 4.7551 27.0246C4.75432 27.0313 4.75363 27.0319 4.75294 27.0387L4.26793 27.4606L2.55559 25.611L2.55153 25.6174C1.90719 24.916 0.994898 24.5063 0 24.3617V25.9689C0.71053 26.1144 1.23788 26.4493 1.54773 26.9348C1.95065 27.566 1.9637 28.4173 1.53572 29.3815C1.39324 29.7025 1.19942 30.0289 0.961631 30.35L0 31.1903V33.3816C0.192862 33.2572 0.37907 33.1269 0.558193 32.9927L18.261 22.0507C19.2763 21.4218 20.2087 20.7712 21.0634 20.1081C19.442 18.9815 17.6223 18.2738 15.9527 17.2517V17.2516ZM22.2285 23.6708L20.9616 24.5572C21.5957 25.4322 22.4497 26.2195 22.8911 27.0124C23.3325 27.8054 23.4856 28.4502 22.7199 29.5631C22.0998 30.4642 21.1742 31.9969 21.3321 33.6975C21.4113 34.5477 21.8209 35.432 22.643 36.1056C23.4652 36.7793 24.6537 37.2583 26.3196 37.5288L26.5732 36.0209C25.0847 35.7793 24.1666 35.3642 23.6391 34.9319C23.1115 34.4997 22.9284 34.0665 22.8812 33.5585C22.7867 32.5425 23.4743 31.1952 24.0084 30.4191C25.0462 28.9107 24.8713 27.3854 24.2555 26.2791C23.6398 25.1729 22.7077 24.332 22.2285 23.6708ZM18.6311 26.2401L17.077 26.3008C17.0231 28.6548 17.3218 32.759 15.4469 34.5626L16.256 35.8678C18.6275 34.0545 18.707 28.6427 18.6311 26.2401ZM8.77478 29.9883C7.35079 30.3215 5.49941 31.8021 4.16735 32.625L3.90407 35.146C3.85223 35.4068 3.80989 35.6737 3.78068 35.9453C3.62178 37.4279 3.83036 38.8329 4.34268 40H6.15905C6.10493 39.916 6.05378 39.8301 6.00568 39.7426C5.53406 38.8804 5.27035 37.6837 5.36194 36.3809L6.13529 33.6148C6.32253 33.2635 6.53466 32.948 6.7646 32.6804C8.33834 31.0814 9.90862 31.2714 10.9364 33.0934C11.4401 34.0152 11.7083 35.3147 11.5574 36.7219C11.4158 38.0414 10.9354 39.1982 10.307 40H12.2184C12.7094 39.0966 13.0401 38.0369 13.1633 36.8875C13.3451 35.1904 13.0458 33.5949 12.3604 32.3417C11.3632 31.0187 10.2249 29.981 8.77478 29.9883Z" fill="#fff"/>
</svg>
