<svg width="40" height="40" viewBox="0 0 23 25" fill="none" xmlns="http://www.w3.org/2000/svg">
<path d="M10.4231 9.17004C9.52564 9.83577 8.4386 10.1967 7.32114 10.2C6.15814 10.2 5.09115 9.81004 4.21815 9.17004C3.46815 9.79504 2.72014 10.69 2.10814 11.793C0.685144 14.356 0.528145 16.985 1.75814 17.667C2.30614 17.979 2.88414 17.745 3.48014 17.171C3.36857 17.7895 3.31268 18.4166 3.31314 19.045C3.31314 21.983 4.45314 24.357 5.85614 24.357C6.70214 24.357 7.12114 23.492 7.32214 22.169C7.52214 23.483 7.94214 24.357 8.78214 24.357C10.1791 24.357 11.3281 21.982 11.3281 19.045C11.3281 18.385 11.2661 17.755 11.1601 17.172C11.7601 17.747 12.3361 17.985 12.8861 17.669C14.1131 16.987 13.9541 14.359 12.5321 11.795C11.9221 10.691 11.1721 9.79704 10.4221 9.17204L10.4231 9.17004ZM7.32014 9.20004C7.88227 9.19984 8.43885 9.08893 8.95811 8.87363C9.47737 8.65833 9.94913 8.34287 10.3465 7.94525C10.7438 7.54763 11.059 7.07564 11.2739 6.55623C11.4888 6.03682 11.5993 5.48016 11.5991 4.91804C11.5989 4.35592 11.488 3.79934 11.2727 3.28008C11.0574 2.76082 10.742 2.28905 10.3444 1.89171C9.94673 1.49437 9.47475 1.17923 8.95534 0.964298C8.43593 0.749365 7.87927 0.638841 7.31714 0.639038C6.18162 0.639436 5.09276 1.0909 4.29011 1.89412C3.48745 2.69734 3.03675 3.78651 3.03714 4.92204C3.03754 6.05756 3.48901 7.14642 4.29223 7.94908C5.09545 8.75173 6.18462 9.20244 7.32014 9.20204V9.20004ZM17.9871 14.67C19.4951 14.67 20.7191 13.446 20.7191 11.936C20.7191 10.426 19.4931 9.20004 17.9861 9.20004C17.2606 9.2003 16.5648 9.48864 16.0518 10.0017C15.5388 10.5147 15.2504 11.2105 15.2501 11.936C15.2507 12.6616 15.5393 13.3572 16.0525 13.8701C16.5657 14.383 17.2616 14.67 17.9871 14.67ZM21.3171 16.327C20.9271 15.622 20.4491 15.05 19.9691 14.65C19.4091 15.06 18.7291 15.31 17.9861 15.31C17.2421 15.31 16.5601 15.06 16.0031 14.65C15.5231 15.05 15.0451 15.622 14.6531 16.327C13.7431 17.965 13.6431 19.645 14.4291 20.081C14.7791 20.281 15.1491 20.131 15.5291 19.765C15.4596 20.1602 15.4248 20.5608 15.4251 20.962C15.4251 22.842 16.1531 24.359 17.0501 24.359C17.5901 24.359 17.8601 23.806 17.9881 22.961C18.1161 23.801 18.3841 24.358 18.9221 24.358C19.8151 24.358 20.5491 22.84 20.5491 20.962C20.5491 20.542 20.5091 20.138 20.4411 19.766C20.8241 20.133 21.1931 20.286 21.5451 20.083C22.3271 19.649 22.2251 17.968 21.3171 16.33V16.327Z" fill="#fff"/>
</svg>
