<svg width="80" height="80" viewBox="0 0 80 80" fill="none" xmlns="http://www.w3.org/2000/svg">
<path d="M54.7328 3.29898L48.9633 16.7024L55.1864 19.3812L60.9561 5.97773L54.7327 3.29883L54.7328 3.29898ZM25.3012 3.35242L19.0333 5.9243L24.5728 19.4243L30.8408 16.8524L25.3014 3.35242H25.3012ZM30.1291 4.34461L28.8583 4.87617L33.3536 15.8345L34.3848 18.3491L31.8723 19.3735L25.6048 21.9454L23.0903 22.9766L22.0591 20.4626L17.5959 9.58914L15.8616 10.3148C18.5687 13.9333 19.7846 18.4525 19.2587 22.941C18.7327 27.4294 16.5049 31.5451 13.0345 34.4398V40.1382H27.6455V52.3332H13.0344V54.5621H27.6453V66.7743H13.0344V72.7646C15.6594 75.3896 27.8305 76.7012 40.0019 76.7012C52.1731 76.7012 64.3444 75.3896 66.9694 72.7646V66.7743H52.3581V54.5641H66.9694V52.3329H52.3534V40.1224H66.9641V34.4255C63.4936 31.5309 61.2659 27.4152 60.7399 22.9268C60.214 18.4383 61.4299 13.9191 64.137 10.3005L62.3652 9.55836L57.6777 20.4468L56.6022 22.9446L54.1047 21.8691L47.89 19.2035L45.3925 18.128L46.468 15.6304L51.1059 4.85383L49.8728 4.34445C48.8948 6.10497 47.4637 7.5719 45.728 8.59324C43.9922 9.61458 42.0149 10.1532 40.0009 10.1532C37.987 10.1532 36.0097 9.61458 34.2739 8.59324C32.5382 7.5719 31.1071 6.10513 30.1291 4.34461ZM10.3125 42.841V49.6165H24.9286V42.841H10.3125ZM55.0714 42.841V49.6165H69.6875V42.841H55.0714ZM10.3125 57.2821V64.0577H24.9286V57.282H10.3125V57.2821ZM55.0714 57.2821V64.0577H69.6875V57.282H55.0714V57.2821Z" fill="white"/>
</svg>
