<svg width="50" height="50" viewBox="0 0 50 50" fill="none" xmlns="http://www.w3.org/2000/svg">
<g clip-path="url(#clip0_133_11)">
<path d="M15.625 40.625H34.375V31.25H31.25V32.8125C31.25 33.2269 31.0854 33.6243 30.7924 33.9174C30.4993 34.2104 30.1019 34.375 29.6875 34.375C29.2731 34.375 28.8757 34.2104 28.5826 33.9174C28.2896 33.6243 28.125 33.2269 28.125 32.8125V31.25H15.625V40.625Z" fill="white"/>
<path d="M18.75 6.25V7.31563C11.4688 9.89063 6.25 16.8375 6.25 25V28.7219L2.59375 30.55C1.81448 30.939 1.15901 31.5375 0.70087 32.2783C0.242727 33.019 2.94219e-05 33.8728 0 34.7438L0 42.1875C0 43.4307 0.49386 44.623 1.37294 45.5021C2.25201 46.3811 3.4443 46.875 4.6875 46.875H7.8125C9.2375 48.7719 11.5062 50 14.0625 50H35.9375C38.4938 50 40.7625 48.7719 42.1875 46.875H45.3125C46.5557 46.875 47.748 46.3811 48.6271 45.5021C49.5061 44.623 50 43.4307 50 42.1875V34.7438C50 33.8728 49.7573 33.019 49.2991 32.2783C48.841 31.5375 48.1855 30.939 47.4063 30.55L43.75 28.7219V25C43.7514 21.1215 42.55 17.3379 40.3112 14.1707C38.0725 11.0035 34.9067 8.60847 31.25 7.31563V6.25C31.25 4.5924 30.5915 3.00269 29.4194 1.83058C28.2473 0.65848 26.6576 0 25 0C23.3424 0 21.7527 0.65848 20.5806 1.83058C19.4085 3.00269 18.75 4.5924 18.75 6.25ZM25 3.125C25.8288 3.125 26.6237 3.45424 27.2097 4.04029C27.7958 4.62634 28.125 5.4212 28.125 6.25V6.50937C26.0563 6.15971 23.9437 6.15971 21.875 6.50937V6.25C21.875 5.4212 22.2042 4.62634 22.7903 4.04029C23.3763 3.45424 24.1712 3.125 25 3.125ZM25 12.5C28.007 12.4994 30.9135 13.5828 33.1865 15.5515C35.4594 17.5203 36.9465 20.2424 37.375 23.2187C37.4076 23.4236 37.3991 23.633 37.3499 23.8345C37.3008 24.0361 37.2119 24.2258 37.0887 24.3927C36.9654 24.5596 36.8101 24.7002 36.6319 24.8065C36.4537 24.9127 36.2561 24.9824 36.0507 25.0114C35.8453 25.0405 35.6361 25.0283 35.4354 24.9757C35.2348 24.923 35.0466 24.8309 34.8819 24.7048C34.7172 24.5786 34.5792 24.421 34.4761 24.2409C34.373 24.0609 34.3067 23.8621 34.2813 23.6563C33.9628 21.4215 32.8488 19.3768 31.1438 17.8975C29.4388 16.4182 27.2573 15.6038 25 15.6038C22.7427 15.6038 20.5612 16.4182 18.8562 17.8975C17.1512 19.3768 16.0372 21.4215 15.7188 23.6563C15.6933 23.8621 15.627 24.0609 15.5239 24.2409C15.4208 24.421 15.2828 24.5786 15.1181 24.7048C14.9534 24.8309 14.7652 24.923 14.5646 24.9757C14.3639 25.0283 14.1547 25.0405 13.9493 25.0114C13.7439 24.9824 13.5463 24.9127 13.3681 24.8065C13.1899 24.7002 13.0346 24.5596 12.9113 24.3927C12.7881 24.2258 12.6992 24.0361 12.6501 23.8345C12.6009 23.633 12.5924 23.4236 12.625 23.2187C13.0535 20.2424 14.5406 17.5203 16.8135 15.5515C19.0865 13.5828 21.993 12.4994 25 12.5ZM14.0625 28.125H35.9375C36.3519 28.125 36.7493 28.2896 37.0424 28.5826C37.3354 28.8757 37.5 29.2731 37.5 29.6875V42.1875C37.5 42.6019 37.3354 42.9993 37.0424 43.2924C36.7493 43.5854 36.3519 43.75 35.9375 43.75H14.0625C13.6481 43.75 13.2507 43.5854 12.9576 43.2924C12.6646 42.9993 12.5 42.6019 12.5 42.1875V29.6875C12.5 29.2731 12.6646 28.8757 12.9576 28.5826C13.2507 28.2896 13.6481 28.125 14.0625 28.125Z" fill="white"/>
</g>
<defs>
<clipPath id="clip0_133_11">
<rect width="50" height="50" fill="white"/>
</clipPath>
</defs>
</svg>
