<svg width="80" height="80" viewBox="0 0 80 80" fill="none" xmlns="http://www.w3.org/2000/svg">
<path d="M22.5313 2.97339C20.8594 2.97339 19.3594 3.81089 18.4531 5.08589C16.25 4.9062 14.0359 5.04839 12.0156 5.62339C11.0938 4.58745 9.75 3.93433 8.26563 3.93433C5.51563 3.93433 3.25 6.19839 3.25 8.95308C3.25 10.4843 3.95313 11.8625 5.04688 12.7859C4.73438 14.375 4.75 15.8281 5.01563 17.1562C3.75 18.0625 2.9375 19.5468 2.9375 21.2031C2.9375 23.9531 5.20313 26.2187 7.95313 26.2187C9.21875 26.2187 10.3906 25.75 11.2656 24.9531C12 25.4375 12.7344 25.8906 13.5 26.3437C13.4531 26.5781 13.4375 26.8281 13.4375 27.0781C13.4375 29.8281 15.7031 32.0937 18.4531 32.0937C19.3438 32.0937 20.1875 31.8593 20.9063 31.4375C21.4844 31.9843 22 32.5625 22.4688 33.1718C21.5781 34.0781 21.0313 35.3125 21.0313 36.6718C21.0313 39.0468 22.7188 41.0468 24.9375 41.5625C24.8906 42.6562 24.75 43.8437 24.4844 45.1406C23.2813 46.3281 22.5313 47.9843 22.5313 49.7968C22.5313 51.5781 23.25 53.2031 24.4063 54.3906L22.3125 72.0937L26.1719 66.4218C26.7031 62.0156 27.2344 57.5156 27.6719 53.7343C29.5313 52.8906 31.0469 52.1718 32.7344 51.4218C36.9688 53.2031 40.7344 54.8906 44.4844 56.4687L50.9219 56.1562L35.6563 49.5781C35.5938 47.5781 34.6094 45.7968 33.1406 44.6406C34.0938 42.7031 35.0938 41.125 36.1875 39.8437C36.7813 40.1093 37.4531 40.25 38.1563 40.25C40.9063 40.25 43.1719 37.9843 43.1719 35.2343C43.1719 35.0937 43.1719 34.9531 43.1563 34.8281C44.2969 34.3593 45.4844 33.9531 46.7188 33.5625C47.6094 34.9531 49.1719 35.875 50.9219 35.875C53.6875 35.875 55.9375 33.6093 55.9375 30.8437V30.7343C57.1094 30.3125 58.2969 29.8125 59.5 29.25C60.4219 30.3281 61.7969 31.0312 63.3125 31.0312C66.0625 31.0312 68.3281 28.7656 68.3281 26C68.3281 25.25 68.1563 24.5156 67.8438 23.8593C68.8438 23.0312 69.8594 22.0625 70.6094 21.1093C71.0625 21.25 71.5469 21.3125 72.0469 21.3125C74.7969 21.3125 77.0625 19.0468 77.0625 16.2968C77.0625 13.625 74.9375 11.4125 72.2969 11.2828C70.5781 8.7062 66.9375 7.4562 64.5625 8.15776C63.6406 6.93589 62.1719 6.14058 60.5469 6.14058C57.7813 6.14058 55.5156 8.4062 55.5156 11.1609C55.5156 11.5781 55.5781 11.9875 55.6719 12.3765C54.9531 12.6078 54.2188 12.7968 53.4531 12.9531C52.7188 11.0843 50.8906 9.74995 48.7813 9.74995C46.5469 9.74995 44.6563 11.2187 44 13.2312C42.7344 13.0765 41.3906 12.8578 40.2969 12.6359C40.2031 9.96714 37.9844 7.81089 35.2813 7.81089C33.6406 7.81089 32.1563 8.62339 31.25 9.86714C29.9688 9.35308 28.7344 8.80151 27.5469 8.21714V7.99214C27.5469 5.23745 25.2813 2.97339 22.5313 2.97339ZM22.5313 5.89058C23.7031 5.89058 24.625 6.81401 24.625 7.99058C24.625 9.16714 23.7031 10.0906 22.5313 10.0906C21.3594 10.0906 20.4219 9.16714 20.4219 7.99058C20.4219 6.81401 21.3594 5.89058 22.5313 5.89058ZM8.26563 6.85308C9.45313 6.85308 10.375 7.77651 10.375 8.95308C10.375 10.1296 9.45313 11.0515 8.26563 11.0515C7.09375 11.0515 6.17188 10.1296 6.17188 8.95308C6.17188 7.77651 7.09375 6.85308 8.26563 6.85308ZM17.5156 7.96089V7.99058C17.5156 10.7453 19.7813 13.0109 22.5313 13.0109C24.1719 13.0109 25.6406 12.2109 26.5625 10.9796C27.75 11.5609 29 12.1125 30.2656 12.625V12.825C30.2656 15.5796 32.5313 17.8437 35.2813 17.8437C37.0781 17.8437 38.6563 16.8906 39.5469 15.4609C41.125 15.75 42.5313 16.0312 43.9531 16.1718C44.5781 18.25 46.5 19.7812 48.7813 19.7812C51.1406 19.7812 53.1406 18.1093 53.6563 15.8906C54.8906 15.6562 56.0781 15.3437 57.2344 14.9296C58.125 15.7031 59.2813 16.1875 60.5469 16.1875C63.2969 16.1875 65.5625 13.914 65.5625 11.1593V10.8859C67.1563 10.6687 68.4688 11.2093 69.2969 12.1062C67.9375 13.0078 67.0156 14.5515 67.0156 16.2968C67.0156 17.5156 67.4531 18.6093 68.1875 19.5C67.4531 20.3593 66.6875 21.0156 65.8906 21.7031C65.1406 21.25 64.25 20.9843 63.3125 20.9843C60.5625 20.9843 58.2969 23.25 58.2969 26C58.2969 26.2031 58.3125 26.3906 58.3281 26.5937C57.2188 27.1093 56.1094 27.5625 55.0156 27.9687C54.1094 26.6718 52.6094 25.8281 50.9219 25.8281C48.2031 25.8281 45.9531 28.0468 45.9063 30.7656C44.625 31.1562 43.3594 31.625 42.1094 32.1562C41.1875 30.9843 39.75 30.2187 38.1563 30.2187C35.4063 30.2187 33.1406 32.4687 33.1406 35.2343C33.1406 36.2656 33.4531 37.2343 34 38.0312C32.7344 39.5 31.5625 41.2656 30.5 43.3906C29.5469 43.2031 28.5938 43.1718 27.7188 43.3906C27.7969 42.6875 27.8438 42 27.8438 41.3593C29.7188 40.625 31.0625 38.7968 31.0625 36.6718C31.0625 33.9218 28.7969 31.6562 26.0469 31.6562C25.7031 31.6562 25.375 31.6875 25.0625 31.75C24.4219 30.8593 23.7031 30.0625 22.9375 29.3281C23.2813 28.6406 23.4688 27.875 23.4688 27.0781C23.4688 24.3125 21.2031 22.0625 18.4531 22.0625C17 22.0625 15.6875 22.6875 14.7656 23.6875C14.0938 23.2656 13.4375 22.8593 12.8125 22.4531C12.9219 22.0468 12.9688 21.6406 12.9688 21.2031C12.9688 18.4531 10.7031 16.1875 7.95313 16.1875C7.875 16.1875 7.79688 16.1875 7.71875 16.2031C7.625 15.5234 7.65625 14.7859 7.79688 13.9484C7.95313 13.964 8.10938 13.9718 8.26563 13.9718C11.0313 13.9718 13.2969 11.7078 13.2969 8.95308C13.2969 8.73745 13.2813 8.52183 13.25 8.31401C14.6766 7.97651 16.125 7.88433 17.5156 7.96089ZM60.5469 9.06089C61.7188 9.06089 62.6406 9.98276 62.6406 11.1593C62.6406 12.3359 61.7188 13.2593 60.5469 13.2593C59.3594 13.2593 58.4375 12.3359 58.4375 11.1593C58.4375 9.98276 59.3594 9.06089 60.5469 9.06089ZM35.2813 10.7296C36.4688 10.7296 37.375 11.6484 37.375 12.825C37.375 14.0015 36.4688 14.9234 35.2813 14.9234C34.1094 14.9234 33.1875 14.0015 33.1875 12.825C33.1875 11.6484 34.1094 10.7296 35.2813 10.7296ZM48.7813 12.6687C49.9531 12.6687 50.875 13.5859 50.875 14.7625C50.875 15.9531 49.9531 16.875 48.7813 16.875C47.5938 16.875 46.6719 15.9531 46.6719 14.7625C46.6719 13.5859 47.5938 12.6687 48.7813 12.6687ZM72.0469 14.1968C73.2188 14.1968 74.1406 15.1203 74.1406 16.2968C74.1406 17.4843 73.2188 18.3906 72.0469 18.3906C70.8594 18.3906 69.9531 17.4843 69.9531 16.2968C69.9531 15.1203 70.8594 14.1968 72.0469 14.1968ZM7.95313 19.0937C9.125 19.0937 10.0625 20.0312 10.0625 21.2031C10.0625 22.375 9.125 23.3125 7.95313 23.3125C6.78125 23.3125 5.85938 22.375 5.85938 21.2031C5.85938 20.0312 6.78125 19.0937 7.95313 19.0937ZM63.3125 23.9062C64.4844 23.9062 65.4219 24.8281 65.4219 26C65.4219 27.1875 64.4844 28.1093 63.3125 28.1093C62.1406 28.1093 61.2188 27.1875 61.2188 26C61.2188 24.8281 62.1406 23.9062 63.3125 23.9062ZM18.4531 24.9687C19.625 24.9687 20.5625 25.8906 20.5625 27.0781C20.5625 28.25 19.625 29.1718 18.4531 29.1718C17.2813 29.1718 16.3594 28.25 16.3594 27.0781C16.3594 25.8906 17.2813 24.9687 18.4531 24.9687ZM50.9219 28.75C52.1094 28.75 53.0156 29.6718 53.0156 30.8437C53.0156 32.0312 52.1094 32.9531 50.9219 32.9531C49.75 32.9531 48.8281 32.0312 48.8281 30.8437C48.8281 29.6718 49.75 28.75 50.9219 28.75ZM38.1563 33.1406C39.3281 33.1406 40.25 34.0468 40.25 35.2343C40.25 36.4062 39.3281 37.3281 38.1563 37.3281C36.9844 37.3281 36.0625 36.4062 36.0625 35.2343C36.0625 34.0468 36.9844 33.1406 38.1563 33.1406ZM26.0469 34.5625C27.2188 34.5625 28.1406 35.5 28.1406 36.6718C28.1406 37.8437 27.2188 38.7656 26.0469 38.7656C24.875 38.7656 23.9531 37.8437 23.9531 36.6718C23.9531 35.5 24.875 34.5625 26.0469 34.5625ZM29.0938 46.1562C30.3594 46.3281 31.7656 46.9687 32.3594 48.1718C29.2188 49.3281 27.7344 49.8593 25.5625 50.7187C25.2813 49.0156 25.5 47.5625 27.125 46.7343C27.7344 46.4218 28.4219 46.0625 29.0938 46.1562ZM32.7656 54.6093L30.375 55.7031L29.2813 65.0625L37.4531 65.5625L41.125 58.2031L32.7656 54.6093ZM52.9531 58.9843L43.7813 59.4375L39.8906 67.2343L44.6094 75.7187L52.9531 58.9843ZM28.6563 67.9531L23.25 75.8906L42 77.0312L37.2344 68.4687L28.6563 67.9531Z" fill="white"/>
</svg>
