<svg width="80" height="80" viewBox="0 0 80 80" fill="none" xmlns="http://www.w3.org/2000/svg">
<path d="M24.5312 5.17334L9.47812 11.1937L10.5219 13.8062L20.4688 9.82646L18.875 16.1874C15.8906 16.7343 13.5938 19.3593 13.5938 22.4999C13.5938 25.6093 15.8438 28.2187 18.7969 28.7968C17.4375 31.6249 15.7813 35.1874 14.1141 39.2811C11.3266 46.0936 8.90625 53.5937 8.90625 58.1249C8.90625 61.4843 10.2391 63.828 12.2844 65.4686C14.3313 67.0936 17.1562 67.9686 20 67.9686C22.8438 67.9686 25.6719 67.0936 27.7187 65.4686C29.7656 63.828 31.0938 61.4843 31.0938 58.1249C31.0938 53.5937 28.6719 46.0936 25.8906 39.2811C24.2187 35.1874 22.5625 31.6249 21.2031 28.7968C24.1562 28.2187 26.4062 25.6093 26.4062 22.4999C26.4062 19.578 24.4219 17.1093 21.7344 16.3437L24.5312 5.17334ZM64.5312 5.17959L49.4844 11.2015L50.5156 13.814L60.4688 9.83584L58.875 16.1874C55.8906 16.7343 53.5938 19.3593 53.5938 22.4999C53.5938 25.6093 55.8437 28.2187 58.7969 28.7968C57.4375 31.6249 55.7812 35.1874 54.1094 39.2811C51.3281 46.0936 48.9062 53.5937 48.9062 58.1249C48.9062 61.4843 50.2344 63.828 52.2813 65.4686C54.3281 67.0936 57.1562 67.9686 60 67.9686C62.8438 67.9686 65.6719 67.0936 67.7187 65.4686C69.7656 63.828 71.0938 61.4843 71.0938 58.1249C71.0938 53.5937 68.6719 46.0936 65.8906 39.2811C64.2188 35.1874 62.5625 31.6249 61.2031 28.7968C64.1563 28.2187 66.4062 25.6093 66.4062 22.4999C66.4062 19.578 64.4219 17.1093 61.7344 16.3437L64.5312 5.17959ZM20 18.9062C22 18.9062 23.5938 20.4999 23.5938 22.4999C23.5938 24.4999 22 26.0937 20 26.0937C18 26.0937 16.4062 24.4999 16.4062 22.4999C16.4062 20.4999 18 18.9062 20 18.9062ZM60 18.9062C62 18.9062 63.5938 20.4999 63.5938 22.4999C63.5938 24.4999 62 26.0937 60 26.0937C58 26.0937 56.4062 24.4999 56.4062 22.4999C56.4062 20.4999 58 18.9062 60 18.9062ZM20 70.7811C18.9062 70.7811 17.9375 71.1249 17.3125 71.5937C16.6719 72.078 16.4062 72.5936 16.4062 73.1249C16.4062 73.6561 16.6719 74.1718 17.3125 74.6561C17.9375 75.1249 18.9062 75.4686 20 75.4686C21.0938 75.4686 22.0625 75.1249 22.6875 74.6561C23.3281 74.1718 23.5938 73.6561 23.5938 73.1249C23.5938 72.5936 23.3281 72.078 22.6875 71.5937C22.0625 71.1249 21.0938 70.7811 20 70.7811ZM60 70.7811C58.9062 70.7811 57.9375 71.1249 57.3125 71.5937C56.6719 72.078 56.4062 72.5936 56.4062 73.1249C56.4062 73.6561 56.6719 74.1718 57.3125 74.6561C57.9375 75.1249 58.9062 75.4686 60 75.4686C61.0938 75.4686 62.0625 75.1249 62.6875 74.6561C63.3281 74.1718 63.5938 73.6561 63.5938 73.1249C63.5938 72.5936 63.3281 72.078 62.6875 71.5937C62.0625 71.1249 61.0938 70.7811 60 70.7811Z" fill="white"/>
</svg>
