<svg width="80" height="80" viewBox="0 0 80 80" fill="none" xmlns="http://www.w3.org/2000/svg">
<path fill-rule="evenodd" clip-rule="evenodd" d="M20.7893 15.7067C21.4102 15.4907 21.9209 15.0389 22.2111 14.4491C22.5013 13.8593 22.5475 13.179 22.3398 12.5554C22.1321 11.9318 21.6871 11.4151 21.1012 11.1171C20.5153 10.8191 19.8357 10.7639 19.2093 10.9633L17.3593 11.58C15.4593 12.2133 13.8427 12.75 12.5627 13.3367C11.1993 13.96 10.006 14.7233 9.05935 15.9233C8.10935 17.1233 7.63935 18.4567 7.34268 19.9233C7.06602 21.3067 6.91268 23 6.73268 24.9967L4.40602 50.5633C4.24694 51.4691 4.16664 52.387 4.16602 53.3067C4.18268 62.0367 11.266 69.1667 19.9993 69.1667C23.7575 69.1667 27.3931 67.8302 30.2564 65.3961C33.1198 62.9621 35.0242 59.5891 35.6293 55.88L36.3593 55.62C38.7134 54.7805 41.2853 54.7805 43.6393 55.62L44.3727 55.88C44.9777 59.5885 46.8817 62.9611 49.7443 65.395C52.607 67.829 56.2418 69.1659 59.9993 69.1667C68.7327 69.1667 75.8127 62.0333 75.8327 53.3067C75.8327 52.3733 75.7493 51.4533 75.5893 50.5633L73.266 25C73.086 23 72.9327 21.31 72.656 19.93C72.3594 18.46 71.8893 17.1233 70.9393 15.9267C69.9893 14.7267 68.7994 13.96 67.436 13.34C66.156 12.7533 64.5427 12.2167 62.6393 11.5833L60.7893 10.9667C60.163 10.7672 59.4834 10.8225 58.8975 11.1204C58.3116 11.4184 57.8666 11.9351 57.6589 12.5587C57.4512 13.1823 57.4974 13.8627 57.7876 14.4525C58.0778 15.0422 58.5885 15.494 59.2093 15.71L60.936 16.2833C62.9927 16.97 64.3493 17.4267 65.356 17.8867C66.3093 18.32 66.736 18.67 67.0227 19.03C67.306 19.3867 67.546 19.8833 67.7527 20.91C67.9693 21.9967 68.1027 23.42 68.2993 25.58L69.6827 40.81C67.524 39.142 64.971 38.06 62.2712 37.6687C59.5714 37.2774 56.8163 37.5902 54.2729 38.5767C51.7295 39.5632 49.4841 41.19 47.7542 43.2994C46.0244 45.4088 44.8687 47.9293 44.3993 50.6167C41.5249 49.7851 38.4738 49.7851 35.5993 50.6167C35.1299 47.9293 33.9743 45.4088 32.2445 43.2994C30.5146 41.19 28.2692 39.5632 25.7258 38.5767C23.1824 37.5902 20.4273 37.2774 17.7275 37.6687C15.0277 38.06 12.4747 39.142 10.316 40.81L10.476 39.0367L11.6993 25.58C11.896 23.42 12.0293 21.9967 12.246 20.9133C12.4527 19.8833 12.6927 19.3867 12.9793 19.03C13.2627 18.67 13.6893 18.3233 14.6427 17.8867C15.6493 17.4267 17.006 16.97 19.0627 16.2867L20.7893 15.7067Z" fill="white"/>
</svg>
