<svg width="80" height="80" viewBox="0 0 80 80" fill="none" xmlns="http://www.w3.org/2000/svg">
<path d="M50.3925 5.81837C50.1107 5.81868 49.839 5.85493 49.5634 5.87727L41.4771 19.2241C51.0684 20.0556 55.8176 24.4593 57.5412 28.796L54.9278 29.8345C53.7236 26.8048 50.7153 23.4557 43.6282 22.3073C46.6223 24.4499 48.8692 26.9288 50.0232 29.9479L47.3961 30.9521C46.1675 27.7379 43.157 24.9993 38.6875 22.5396C37.1153 23.1834 29.0609 26.4729 26.2726 27.4173C20.4687 29.3827 17.3075 33.3691 11.2754 40.3704L11.255 40.3938L11.2339 40.4165C10.2554 41.4559 9.84418 42.3935 9.7498 43.0774C9.65543 43.761 9.82543 44.1863 10.1261 44.504C10.7273 45.1393 12.3414 45.5415 14.7307 43.9209L14.7425 43.9129L26.4676 36.2923L28.1636 38.5268L20.1237 45.6065L5.4209 59.1943C3.55699 60.9168 3.58715 62.5915 4.02246 63.1695C4.24027 63.4585 4.56918 63.6804 5.36355 63.6446C6.15793 63.6088 7.38637 63.2235 8.92308 62.1709C13.5689 58.9888 17.8973 55.809 21.6965 51.9738L21.6882 51.939L21.7456 51.9246C21.7727 51.8978 21.7996 51.871 21.8265 51.8441L21.8812 51.8899C22.4142 51.7497 22.9401 51.5835 23.4568 51.3918C24.3964 51.0409 25.4009 50.4009 25.5201 50.2391C25.5707 50.1704 25.8598 49.1934 25.9092 48.3401C25.9586 47.4868 25.9101 46.7613 25.9101 46.7613L28.7159 46.5688C28.7159 46.5688 28.7779 47.4501 28.7171 48.5024C28.6562 49.5546 28.6148 50.7815 27.7832 51.9087C26.8832 53.129 25.567 53.606 24.4407 54.0266C24.1145 54.1476 23.7849 54.2593 23.4523 54.3615C19.6442 59.4684 14.8065 63.3577 10.3336 67.4096C8.78605 68.8115 8.14558 70.0173 8.00308 70.7582C7.86043 71.4993 8.02402 71.7593 8.40715 72.0363C9.17308 72.5904 11.714 72.6799 14.3443 70.2566C19.5028 65.504 24.5353 60.7826 28.3815 55.1441L28.5084 55.2196C28.734 55.1221 29.1661 54.9298 29.7526 54.6096C30.5292 54.1857 31.3718 53.513 31.4845 53.343C31.5915 53.1816 31.8803 52.1587 31.967 51.291C32.0537 50.4234 32.047 49.6965 32.047 49.6965L34.8592 49.6663C34.8592 49.6663 34.8692 50.5324 34.7654 51.571C34.6615 52.6095 34.552 53.806 33.8286 54.8974C33.0995 55.9971 32.0275 56.5724 31.1 57.0785C30.8171 57.2329 30.5567 57.3638 30.3151 57.4813C27.7412 62.1549 24.0412 66.2048 20.1011 70.443C19.2589 71.349 19.104 72.0374 19.1539 72.523C19.2039 73.0087 19.4729 73.4243 20.0011 73.7523C21.0573 74.4085 23.069 74.5123 24.9125 72.6098C27.0384 70.4157 28.964 68.1223 30.6412 65.6884C32.094 63.038 33.5709 60.3621 34.979 57.6891L35.0703 57.7315C35.2075 57.6868 35.6812 57.5291 36.2995 57.2557C37.0146 56.9396 37.7998 56.3943 37.8703 56.3037C37.9386 56.2157 38.2718 55.3252 38.4011 54.5587C38.4796 54.09 38.5349 53.6177 38.5667 53.1435L41.3753 53.2982C41.3753 53.2982 41.3325 54.0873 41.1745 55.0259C41.0164 55.9643 40.8548 57.0466 40.0911 58.0293C39.3251 59.0149 38.3114 59.4415 37.437 59.828C37.3028 59.8874 37.1806 59.936 37.0542 59.988C35.939 62.5195 34.5895 64.8955 33.0506 67.1449C32.4925 68.1635 31.9218 69.1965 31.3868 70.1921C30.8943 71.1087 30.8637 71.7712 30.9748 72.2179C31.0861 72.6648 31.337 72.9548 31.7139 73.146C32.4678 73.5285 33.8048 73.4863 35.0154 71.8004C43.9904 59.3016 54.7843 46.7571 59.5634 30.3963C59.9139 29.1965 60.679 28.6056 61.5937 27.7565C62.5084 26.9074 63.6221 25.996 64.714 25.0915C65.8062 24.1868 66.8767 23.2884 67.6562 22.5306C68.1736 22.0274 68.5029 21.5348 68.6653 21.3098C68.2834 19.8212 67.6596 18.3307 66.8476 16.8954C65.1153 18.0077 63.2325 19.0307 61.7234 19.8574C62.6882 17.529 63.2742 15.0745 63.6607 12.5534C62.8503 11.6759 61.9761 10.8595 61.0453 10.111C57.727 7.44649 53.8523 5.81446 50.3925 5.81837ZM24.3957 6.44243C24.2716 6.44056 24.1474 6.44108 24.0232 6.44399C21.9992 6.49118 19.5226 7.25805 17.1359 8.54915C15.8575 9.24071 14.6157 10.0851 13.4704 11.0265C13.8482 14.0324 14.4592 16.9607 15.5993 19.7124C13.6829 18.6624 11.1651 17.2956 9.11715 15.8312C8.30387 17.1121 7.74152 18.4132 7.52293 19.6516C7.61668 20.0857 8.07527 21.0101 8.92058 22.0366C9.84215 23.1557 11.1175 24.4062 12.4281 25.6173C13.7387 26.8284 15.0828 28.0032 16.1801 29.0384C16.4923 29.3327 16.782 29.5966 17.0509 29.8523C19.5245 27.5671 22.0754 25.8691 25.3706 24.7534C27.5596 24.012 34.1575 21.3426 36.6518 20.3285L28.4987 8.34305C27.5718 7.04602 26.2268 6.47055 24.3957 6.44243ZM61.872 32.472C61.1562 34.7531 60.3323 36.9581 59.4211 39.0965L63.9951 41.6334L64.007 41.6404C66.5039 43.0901 68.0861 42.5759 68.6414 41.9001C68.919 41.5621 69.0589 41.1263 68.917 40.4509C68.7751 39.7754 68.2993 38.8685 67.2507 37.9001L67.2053 37.8577L67.1634 37.8116C65.2421 35.6938 63.4967 33.9413 61.872 32.472ZM57.6831 42.8876C55.78 46.7762 53.612 50.4485 51.3143 53.9652C55.5229 59.2409 60.8153 63.552 66.2332 67.8846C69.0265 70.1182 71.5546 69.8513 72.2801 69.2451C72.6426 68.942 72.7881 68.6712 72.5942 67.942C72.4 67.2127 71.677 66.0545 70.0351 64.7641C65.0703 60.8621 59.7184 57.1665 55.4645 51.9865L57.4826 50.0401C61.5754 53.6568 66.1642 56.558 71.0761 59.4401C72.6826 60.3827 73.9346 60.6812 74.7296 60.6613C75.5246 60.6415 75.8373 60.3973 76.0343 60.0937C76.4282 59.4868 76.3412 57.814 74.3617 56.226L58.7454 43.6988L57.6831 42.8876ZM49.5939 56.5396C48.7339 57.7971 47.8597 59.0446 46.9712 60.2821C47.8639 61.6813 48.7634 63.0774 49.6561 64.466C51.4996 66.777 53.5809 68.9304 55.8551 70.9707C57.827 72.7399 59.8265 72.4954 60.8343 71.767C61.3384 71.4029 61.5779 70.9696 61.5937 70.4816C61.6095 69.9937 61.4068 69.3179 60.5032 68.4729C56.3661 64.604 52.4712 60.8987 49.5939 56.5396ZM45.0537 62.9196C44.1175 64.1956 43.1769 65.4684 42.2321 66.738C43.4112 68.1185 44.5787 69.4937 45.7206 70.8695C47.0459 72.4666 48.3825 72.4148 49.1078 71.9807C49.4703 71.7635 49.7006 71.457 49.7803 71.0035C49.86 70.5501 49.7829 69.8912 49.2276 69.0113C48.624 68.0546 47.982 67.0635 47.3536 66.0859C46.5428 65.0633 45.7755 64.0069 45.0537 62.9196Z" fill="white"/>
</svg>
