<svg width="84" height="84" viewBox="0 0 84 84" fill="none" xmlns="http://www.w3.org/2000/svg">
<path d="M67.7508 53.7279C68.0335 53.7279 68.3047 53.6169 68.5047 53.4193C68.7046 53.2217 68.817 52.9537 68.817 52.6743V45.4181C68.807 39.6384 66.78 34.039 63.0779 29.5646C59.3758 25.0903 54.2252 22.0149 48.4952 20.8573C49.1514 19.7334 49.4968 18.4586 49.4965 17.161C49.4963 15.8634 49.1504 14.5887 48.4938 13.465C47.8371 12.3413 46.8927 11.4082 45.7555 10.7595C44.6183 10.1108 43.3284 9.76923 42.0153 9.76923C40.7023 9.76923 39.4124 10.1108 38.2752 10.7595C37.138 11.4082 36.1936 12.3413 35.5369 13.465C34.8803 14.5887 34.5344 15.8634 34.5342 17.161C34.5339 18.4586 34.8793 19.7334 35.5355 20.8573C29.8062 22.0156 24.6564 25.0913 20.955 29.5656C17.2536 34.0399 15.227 39.6389 15.2173 45.4181V52.6743C15.2173 52.9537 15.3296 53.2217 15.5296 53.4193C15.7295 53.6169 16.0007 53.7279 16.2835 53.7279H67.7508Z" fill="white"/>
<path d="M72.5184 57.9232H11.5105C11.0742 58.0547 10.6921 58.321 10.4202 58.6829C10.1484 59.0448 10.0011 59.4832 10 59.934V72.7535C10 73.3124 10.2247 73.8484 10.6246 74.2435C11.0245 74.6387 11.5669 74.8608 12.1324 74.8608H71.9036C72.4691 74.8608 73.0115 74.6387 73.4114 74.2435C73.8113 73.8484 74.036 73.3124 74.036 72.7535V59.934C74.0345 59.4823 73.8861 59.0432 73.6129 58.6811C73.3397 58.3191 72.956 58.0535 72.5184 57.9232Z" fill="white"/>
</svg>
