<svg width="80" height="80" viewBox="0 0 80 80" fill="none" xmlns="http://www.w3.org/2000/svg">
<path d="M60.9865 57.2213C60.1179 67.6975 51.051 75.9375 39.9926 75.9375C28.934 75.9375 19.8671 67.6975 18.9984 57.2213C19.4421 58.0296 19.9066 58.8145 20.3918 59.5759C25.6115 67.7439 32.5732 72.2422 39.991 72.2422C47.4087 72.2422 54.372 67.7439 59.5918 59.5713C60.078 58.814 60.543 58.0306 60.9866 57.2213H60.9865ZM64.6787 31.7048C64.6787 41.3412 62.0391 50.9986 57.4368 58.1986C52.7035 65.6053 46.5079 69.6828 40.0004 69.6828C33.4929 69.6828 27.291 65.6036 22.564 58.1987C17.9616 51.0003 15.3223 41.3414 15.3223 31.705C15.3223 24.3464 17.3634 17.6181 21.0682 12.7647C25.397 7.07313 31.946 4.0625 39.9926 4.0625C48.0391 4.0625 54.5927 7.06984 58.9343 12.7616C62.6374 17.6166 64.6771 24.3431 64.6771 31.7033L64.6787 31.7048ZM37.2026 31.8648C37.4041 30.6427 28.2971 27.6353 25.6849 27.205C23.0726 26.7747 21.3146 26.5652 20.8859 29.1727C20.7833 29.7929 20.804 30.4273 20.9467 31.0396C21.0894 31.6518 21.3513 32.23 21.7175 32.741C22.0837 33.252 22.547 33.6859 23.0809 34.0178C23.6148 34.3497 24.2088 34.5732 24.8291 34.6755C27.4382 35.1106 36.9946 33.1255 37.201 31.8697L37.2026 31.8648ZM48.7538 53.0542C48.7538 51.2945 45.788 49.882 39.9924 49.882C34.1968 49.882 31.231 51.3025 31.231 53.0542C31.231 54.8059 34.1966 56.2262 39.9924 56.2262C45.788 56.2262 48.7538 54.8106 48.7538 53.0591V53.0542ZM59.099 29.1773C58.6687 26.5683 56.9057 26.7778 54.2999 27.2098C51.694 27.6417 42.5838 30.6475 42.7823 31.8697C42.9885 33.1255 52.5402 35.1091 55.1541 34.6788C55.7744 34.5767 56.3686 34.3534 56.9025 34.0216C57.4365 33.6898 57.8999 33.2561 58.2662 32.7453C58.6326 32.2344 58.8947 31.6563 59.0375 31.0441C59.1804 30.432 59.2013 29.7976 59.099 29.1773Z" fill="white"/>
</svg>
