<svg width="84" height="84" viewBox="0 0 84 84" fill="none" xmlns="http://www.w3.org/2000/svg">
<path d="M70.4728 73.637L62.3388 24.191C62.1696 24.1736 62.002 24.1538 61.836 24.1314C57.098 23.4711 53.6851 20.6528 53.6744 17.3805V14.5301C49.2773 14.8113 44.3437 15.0834 41.776 15.0834C39.2083 15.0834 34.2747 14.8113 29.8776 14.5301V17.3805C29.8669 20.6528 26.4601 23.4711 21.7161 24.1314C21.549 24.1538 21.3814 24.1736 21.2132 24.191L13.0792 73.637H33.4479L40.0871 31.0366C40.1788 30.4527 40.9079 30.008 41.7775 30.008C42.6472 30.008 43.3762 30.4512 43.4679 31.0366L50.1057 73.637H70.4728Z" fill="white"/>
<path d="M26.4571 17.084V14.333C25.0357 14.2458 23.7901 14.1664 22.8654 14.1068L21.5953 21.0349C24.4748 20.5091 26.451 18.9043 26.4571 17.084Z" fill="white"/>
<path d="M60.4894 12.045V10C56.2099 10.2751 45.9178 10.917 41.7759 10.917C37.634 10.917 27.342 10.2812 23.0625 10V12.045C27.0363 12.3017 37.7273 12.962 41.7759 12.962C45.8246 12.962 56.5171 12.3017 60.4894 12.045Z" fill="white"/>
<path d="M61.9566 21.0303L60.6865 14.1022C59.7619 14.1618 58.5162 14.2412 57.0948 14.3284V17.0794C57.0948 18.9043 59.0817 20.5091 61.9566 21.0303Z" fill="white"/>
</svg>
