<svg width="84" height="84" viewBox="0 0 84 84" fill="none" xmlns="http://www.w3.org/2000/svg">
<path d="M75.4965 50.5767L75.1451 50.0726L74.8559 50.612C72.9588 54.1319 66.6515 56.2357 61.6485 56.2357C55.279 56.2357 23.8322 55.301 19.7373 55.0737C18.9275 55.0271 18.0831 55.0045 17.0767 55.0045C16.4535 55.0045 15.8737 55.0116 15.3126 55.0186C14.8253 55.0186 14.367 55.0314 13.9361 55.0314C12.8224 55.0042 11.7208 54.7986 10.6754 54.4228C10.2656 54.2643 9.83469 54.164 9.39575 54.1249C9.27882 54.1196 9.16204 54.1379 9.05261 54.1784C8.94318 54.219 8.84343 54.281 8.75952 54.3607C8.64513 54.5001 8.56059 54.6606 8.51092 54.8326C8.46124 55.0045 8.44744 55.1845 8.47033 55.3618C8.53251 59.5002 10.7839 59.8207 13.9404 59.8207C14.3742 59.8207 14.8369 59.8206 15.3271 59.8079C15.8852 59.8009 16.4622 59.7939 17.081 59.7939C18.0715 59.7939 18.903 59.815 19.6982 59.8616C23.7975 60.0889 55.2761 61.025 61.6528 61.025C64.9769 61.0042 68.2513 60.236 71.2222 58.7801C74.3932 57.1634 76.1385 54.9862 76.1385 52.6522C76.1466 51.9126 75.9225 51.1883 75.4965 50.5767Z" fill="white"/>
<path d="M13.5109 53.0489C13.9447 53.0489 14.4016 53.0489 14.8874 53.0362C15.4412 53.0291 16.0138 53.0221 16.6226 53.0221C17.6073 53.0221 18.4315 53.0433 19.2253 53.0898C23.2914 53.3172 54.5271 54.2533 60.8546 54.2533C64.1555 54.2322 67.4064 53.4638 70.3517 52.0083C73.4981 50.3902 75.2318 48.2144 75.2318 45.8805C75.2318 42.4918 71.2771 41.4018 67.0896 40.244C64.7991 39.6979 62.574 38.9175 60.4512 37.9157C59.5532 37.4441 58.1825 36.7608 56.5124 35.939C56.5124 35.8924 56.5196 35.8444 56.5196 35.7978C56.5201 35.3149 56.3788 34.8419 56.1123 34.435C55.8459 34.0282 55.4655 33.7045 55.0163 33.5023C54.5672 33.3002 54.068 33.2281 53.5782 33.2946C53.0883 33.3611 52.6282 33.5635 52.2526 33.8776L50.3974 32.9881C50.3794 32.5325 50.2353 32.0903 49.9803 31.7085C49.7254 31.3266 49.3691 31.0194 48.9495 30.8196C48.5299 30.6198 48.0627 30.5349 47.5975 30.5739C47.1324 30.6129 46.6868 30.7743 46.3082 31.041L44.6121 30.2362C44.677 29.7137 44.5731 29.1845 44.3149 28.7226C44.0567 28.2606 43.6571 27.889 43.172 27.6597C42.6869 27.4304 42.1405 27.3549 41.6093 27.4437C41.0781 27.5325 40.5885 27.7812 40.2091 28.155C34.6913 25.5542 30.1684 23.4405 29.7635 23.2513C29.5295 23.0908 29.2513 23.0032 28.9653 23C28.7426 23.0015 28.5232 23.0533 28.3243 23.1513C28.1254 23.2492 27.9523 23.3907 27.8187 23.5648L24.7706 27.5549C24.5811 27.7779 24.4409 28.0368 24.3587 28.3152C24.2766 28.5937 24.2544 28.8857 24.2934 29.173C24.4756 30.2305 25.5948 30.9803 26.4913 31.5818C26.8524 31.7911 27.1807 32.0503 27.4659 32.3513C26.1601 33.2191 24.5941 33.6347 23.0181 33.5317C21.6012 33.5219 20.1967 33.2731 18.8667 32.796C18.1584 32.4451 17.5343 31.9514 17.0358 31.3476C16.5373 30.7437 16.1757 30.0434 15.9748 29.293C15.515 28.2072 15.1173 27.2697 14.2397 27.2697C13.5702 27.2697 12.7937 27.8557 11.6456 29.2351C7.74149 34.0866 7.91935 41.4992 8.05238 46.9112C8.06684 47.4915 8.07985 48.0478 8.08853 48.5759C8.14203 52.7284 10.3703 53.0489 13.5109 53.0489ZM46.2721 38.0103C46.4187 37.8733 46.5977 37.7739 46.7933 37.7209C46.9888 37.668 47.1947 37.6631 47.3927 37.7068C47.932 37.8649 49.2074 38.1995 49.9867 38.3887C50.6533 38.5511 50.0518 39.0622 50.0518 39.0622L39.9301 48.1156C39.6356 48.3531 39.2666 48.4847 38.8846 48.4883C37.8725 48.4883 35.919 48.4813 35.1251 48.4813C34.4629 48.4813 35.0124 47.9349 35.0124 47.9349L46.2721 38.0103ZM38.5593 35.8741C38.7835 35.6628 39.0582 35.5098 39.3586 35.4289C39.6589 35.348 39.9752 35.3418 40.2785 35.411C40.7543 35.5521 41.8691 35.8345 42.582 36.0223C43.1907 36.1889 42.5458 36.8017 42.5444 36.8017L30.0064 47.901C29.8578 48.0876 29.6622 48.2334 29.4387 48.3242C29.2152 48.415 28.9714 48.4477 28.7311 48.4192C27.6278 48.4192 25.5239 48.4686 24.6636 48.4686C24.1763 48.4686 24.6101 47.9575 24.6086 47.9575L38.5593 35.8741Z" fill="white"/>
</svg>
