<svg width="80" height="80" viewBox="0 0 80 80" fill="none" xmlns="http://www.w3.org/2000/svg">
<path d="M28.6749 7.71451C27.2171 7.77623 25.6952 7.93857 24.1299 8.19764C25.3555 13.8617 28.1357 18.9704 33.5937 23.4279V21.7873C32.2116 20.1864 31.1179 17.8014 30.228 15.132C29.4191 12.7048 28.8538 10.0973 28.6749 7.71451ZM51.3249 7.71451C51.146 10.0973 50.5807 12.7051 49.7718 15.1322C48.882 17.8014 47.7882 20.1865 46.4062 21.7873V23.4279C51.864 18.9701 54.6443 13.8614 55.8699 8.19748C54.3043 7.93842 52.7827 7.77623 51.3249 7.71451ZM31.5105 8.05514C31.6332 9.20248 31.8593 10.4473 32.1634 11.6931C34.8743 13.1359 37.4127 13.9062 39.9999 13.9062C42.5871 13.9062 45.1255 13.1359 47.8365 11.6931C48.1405 10.4475 48.3666 9.20248 48.4893 8.05514C45.204 10.1426 42.5624 11.0937 39.9999 11.0937C37.4374 11.0937 34.7959 10.1426 31.5105 8.05514ZM21.3726 8.74389C16.5605 9.84889 11.4609 11.7969 6.61133 14.4797C11.3237 33.7461 13.7284 59.4944 11.5898 76.7187H33.5937V26.9739C26.5205 21.8453 22.8499 15.5501 21.3726 8.74389ZM58.6273 8.74389C57.1499 15.55 53.4793 21.8453 46.4062 26.974V76.7187H68.4099C66.2713 59.4944 68.676 33.7461 73.3885 14.4797C68.539 11.7969 63.4393 9.84889 58.6273 8.74389ZM30.3213 32.539L30.6252 52.564L29.8616 52.9662C25.6401 55.1909 20.8562 55.2819 16.1174 53.9783L15.1002 53.6989L14.8159 34.9684L14.7955 33.6381L30.3213 32.539ZM49.6785 32.539L63.877 33.544L65.2041 33.6378L64.8995 53.6987L63.8823 53.9784C59.1437 55.2815 54.3598 55.1909 50.1382 52.9662L49.3746 52.564L49.6785 32.539ZM25.6504 35.689L19.7079 36.1097L22.8898 38.8706L25.6504 35.689ZM54.3493 35.689L57.1102 38.8708L60.292 36.1098L54.3493 35.689ZM27.5874 37.7484L23.1702 42.8384L17.6757 38.07L17.8799 51.5094C21.4402 52.3215 24.778 52.1765 27.7859 50.8289L27.5874 37.7484ZM52.4124 37.7484L52.214 50.8289C55.2218 52.1765 58.5596 52.3215 62.1199 51.5094L62.3241 38.07L56.8295 42.8384L52.4124 37.7484ZM36.4062 73.9062V76.7187H43.5937V73.9062H36.4062Z" fill="white"/>
</svg>
