<svg width="80" height="80" viewBox="0 0 80 80" fill="none" xmlns="http://www.w3.org/2000/svg">
<g clip-path="url(#clip0_96_170)">
<path d="M78.8997 15.0781L54.5622 0C52.0497 4.34375 46.4872 7.375 39.9997 7.375C33.5122 7.375 27.9497 4.34375 25.4372 0L1.09972 15.0781C0.112217 15.7031 -0.287783 17.2031 0.199717 18.4375L7.34972 36.3281C7.84972 37.5625 9.04972 38.0625 10.0372 37.4531L17.1122 33.125C18.4372 32.3125 19.9872 33.5156 19.9872 35.375V75C19.9872 77.7656 21.7747 80 23.9872 80H55.9872C58.1997 80 59.9872 77.7656 59.9872 75V35.3594C59.9872 33.5156 61.5372 32.2969 62.8622 33.1094L69.9372 37.4375C70.9247 38.0625 72.1247 37.5625 72.6247 36.3125L79.7872 18.4375C80.2872 17.2031 79.8872 15.6875 78.8997 15.0781Z" fill="white"/>
</g>
<defs>
<clipPath id="clip0_96_170">
<rect width="80" height="80" fill="white"/>
</clipPath>
</defs>
</svg>
