<svg width="84" height="84" viewBox="0 0 84 84" fill="none" xmlns="http://www.w3.org/2000/svg">
<path d="M43.7846 70.1393C35.9677 70.1393 28.1509 70.1393 20.334 70.1393C19.0975 70.1999 17.8619 69.9988 16.7065 69.549C15.5511 69.0992 14.5012 68.4105 13.6237 67.5269C12.7461 66.6433 12.0603 65.5843 11.61 64.4174C11.1597 63.2505 10.9547 62.0013 11.0084 60.7498C10.9976 48.0375 10.9976 35.3246 11.0084 22.6111C11.0206 20.2308 11.9613 17.9517 13.6256 16.2695C15.29 14.5874 17.5436 13.6383 19.8959 13.6288C33.5292 13.6192 47.1624 13.6192 60.7957 13.6288C61.2703 13.5703 61.7517 13.6131 62.2089 13.7546C62.6661 13.8961 63.089 14.1331 63.45 14.4503C63.811 14.7675 64.1023 15.1579 64.3049 15.5961C64.5074 16.0344 64.6167 16.5107 64.626 16.9945C64.6528 19.0663 63.1115 20.4108 60.7171 20.4108H20.933C20.5611 20.3962 20.1886 20.401 19.8171 20.4253C19.2543 20.4642 18.7264 20.7157 18.3382 21.13C17.95 21.5442 17.7299 22.0909 17.7213 22.6617C17.7192 23.2341 17.9347 23.7854 18.3232 24.2014C18.7116 24.6174 19.2433 24.8663 19.8082 24.8965C20.8274 24.9725 21.8539 24.9272 22.8786 24.9272H67.2672C68.117 24.8243 68.9786 24.9181 69.7873 25.2014C70.5961 25.4846 71.3307 25.9501 71.9357 26.5627C72.5407 27.1752 73.0002 27.9188 73.2797 28.7373C73.5592 29.5558 73.6513 30.4278 73.5491 31.2876C73.5491 32.6068 73.5081 33.9259 73.5707 35.2414C73.61 36.0737 73.29 36.2637 72.5264 36.2565C69.2701 36.2185 66.0118 36.2293 62.7555 36.2366C61.256 36.1842 59.7615 36.4382 58.3611 36.9832C56.9607 37.5282 55.6832 38.353 54.6048 39.4086C53.5264 40.4642 52.6693 41.7288 52.0845 43.127C51.4997 44.5252 51.1994 46.0282 51.2013 47.5465C51.2032 49.0647 51.5075 50.567 52.0958 51.9636C52.6842 53.3603 53.5445 54.6227 54.6256 55.6755C55.7066 56.7283 56.9862 57.5499 58.388 58.0912C59.7897 58.6326 61.2849 58.8825 62.7843 58.8263C66.003 58.8372 69.2057 58.8661 72.4155 58.8136C73.3347 58.7991 73.6207 59.0761 73.5742 59.9971C73.5009 61.4447 73.5617 62.9157 73.5456 64.3742C73.5662 65.1419 73.4308 65.9057 73.1479 66.6183C72.8649 67.3309 72.4404 67.9771 71.9006 68.5169C71.3608 69.0567 70.7173 69.4786 70.0098 69.7564C69.3023 70.0342 68.546 70.162 67.7876 70.132C59.7884 70.1489 51.7874 70.1514 43.7846 70.1393Z" fill="#EAEAEA"/>
<path d="M73.5634 47.9894C73.5634 49.4478 73.5438 50.9062 73.5724 52.3629C73.5831 52.9238 73.5079 53.2188 72.832 53.2098C70.0942 53.1718 67.3566 53.2404 64.6207 53.1771C63.2943 53.1065 62.0451 52.5237 61.1309 51.5487C60.2167 50.5737 59.707 49.2808 59.707 47.9368C59.707 46.5928 60.2167 45.2999 61.1309 44.3249C62.0451 43.3499 63.2943 42.7671 64.6207 42.6965C67.3566 42.6332 70.0962 42.6966 72.8339 42.664C73.4991 42.655 73.5939 42.9354 73.5813 43.5036C73.5366 45.0001 73.5634 46.4947 73.5634 47.9894Z" fill="#EAEAEA"/>
</svg>
