<svg width="84" height="84" viewBox="0 0 84 84" fill="none" xmlns="http://www.w3.org/2000/svg">
<path d="M73.1295 17.5012L67.7436 12.1131C67.2749 11.5625 66.6984 11.1139 66.0497 10.7948C65.401 10.4758 64.6939 10.293 63.9719 10.2579C63.2499 10.2229 62.5283 10.3361 61.8518 10.5908C61.1752 10.8455 60.558 11.2361 60.0382 11.7386L58.5683 13.2091C57.6853 12.5778 56.639 12.2148 55.5548 12.1639C54.4707 12.1129 53.3949 12.376 52.4566 12.9217C49.8118 14.4992 47.2479 16.2478 44.7498 18.0744C50.5246 18.5833 55.9361 21.1095 60.0357 25.2101C64.1352 29.3107 66.6611 34.724 67.1706 40.5011C68.9965 38.002 70.7444 35.4356 72.3212 32.7912C72.8667 31.8525 73.1297 30.7763 73.0788 29.6917C73.0278 28.6072 72.665 27.5604 72.034 26.677L73.5038 25.2066C74.0057 24.6866 74.3957 24.0693 74.65 23.3928C74.9043 22.7163 75.0174 21.9948 74.9823 21.2729C74.9472 20.551 74.7648 19.8439 74.4461 19.1952C74.1275 18.5466 73.6794 17.97 73.1295 17.5012Z" fill="white"/>
<path d="M57.3506 27.9029C54.4208 24.9718 50.6879 22.9757 46.6241 22.167C42.5603 21.3583 38.3481 21.7733 34.52 23.3595C30.692 24.9458 27.4201 27.632 25.1181 31.0785C22.8161 34.525 21.5875 38.577 21.5875 42.7221C21.5875 46.8672 22.8161 50.9192 25.1181 54.3657C27.4201 57.8122 30.692 60.4984 34.52 62.0846C38.3481 63.6709 42.5603 64.0859 46.6241 63.2771C50.6879 62.4684 54.4208 60.4723 57.3506 57.5413C61.2732 53.6078 63.4762 48.2784 63.4762 42.7221C63.4762 37.1658 61.2732 31.8364 57.3506 27.9029ZM51.9631 35.9858L45.2295 42.7221L49.2694 46.7635C49.6266 47.1209 49.8273 47.6056 49.8273 48.1109C49.8273 48.6163 49.6266 49.101 49.2694 49.4584C48.9122 49.8157 48.4277 50.0165 47.9225 50.0165C47.4173 50.0165 46.9328 49.8157 46.5756 49.4584L41.1882 44.0703C41.0112 43.8934 40.8708 43.6833 40.775 43.4521C40.6792 43.2209 40.6299 42.9731 40.6299 42.7228C40.6299 42.4726 40.6792 42.2248 40.775 41.9936C40.8708 41.7624 41.0112 41.5523 41.1882 41.3754L49.2678 33.2925C49.6251 32.9352 50.1095 32.7344 50.6147 32.7344C51.1199 32.7344 51.6044 32.9352 51.9616 33.2925C52.3188 33.6499 52.5195 34.1346 52.5195 34.6399C52.5195 35.1453 52.3188 35.63 51.9616 35.9873L51.9631 35.9858Z" fill="white"/>
<path d="M25.0228 60.2377C20.9218 56.1405 18.3958 50.7282 17.8889 44.9523C16.0676 47.4438 14.3196 50.0102 12.7382 52.6637C12.1928 53.6024 11.9297 54.6786 11.9807 55.7632C12.0317 56.8477 12.3944 57.8945 13.0255 58.7779L11.5556 60.2483C11.0417 60.7818 10.6395 61.4126 10.3728 62.1038C10.1061 62.795 9.98018 63.5325 10.0025 64.2731C10.0249 65.0136 10.195 65.7422 10.5029 66.416C10.8108 67.0899 11.2503 67.6953 11.7955 68.1967L17.1814 73.568C18.2536 74.6384 19.7065 75.2396 21.2213 75.2396C22.736 75.2396 24.1889 74.6384 25.2611 73.568L26.4835 72.2397C27.3667 72.8706 28.4131 73.2331 29.4972 73.2838C30.5813 73.3345 31.657 73.0712 32.5952 72.5255C35.2477 70.942 37.8115 69.1949 40.302 67.3744C34.5285 66.8671 29.1184 64.3402 25.0228 60.2377Z" fill="white"/>
</svg>
