<svg xmlns="http://www.w3.org/2000/svg" width="34.497" height="25.293" viewBox="0 0 34.497 25.293">
  <path id="32" data-name="403" d="M9547.415,11720.144c-.089,0-.187,0-.312-.008-.317-.016-.646-.023-1.035-.023-.26,0-.525,0-.782.007l-.133,0c-.287,0-.546.008-.806.009a3.915,3.915,0,0,1-2.324-.747,56.411,56.411,0,0,1-9.044-8.01,9.482,9.482,0,0,1-2.742-6.668,35.348,35.348,0,0,0-.722-5.616c-.147-.806-.3-1.639-.425-2.464l-.018-.12-.021-.146,0-.034c-.019-.13-.035-.247-.049-.332l.64.139.186.04.051.011c.609.131,1.185.255,1.759.395a9.866,9.866,0,0,0,2.366,4.94,53.831,53.831,0,0,0,8.315,8.01,3.421,3.421,0,0,0,2.141.747c.237,0,.477,0,.742-.009.23,0,.535-.009.841-.009.374,0,.676.008.95.023.1.006.191.009.285.009a4.585,4.585,0,0,0,3.335-1.462c.771-.767,1.6-1.552,2.263-2.183l.419-.4c.006.059.014.116.021.165,0,.009.019.017.051.032l.082.041.114-.043.2-.075.343-.129-.111-.017-.121-.019-.461-.07c.523-.5,1.31-1.248,2.072-2.019,1.274-1.283,2.536-2.65,3.75-4.064a6.461,6.461,0,0,0,1.537-3.92l.234.048.374.076c.319.065.645.133.984.2-.011.15-.023.306-.037.467l-.012.145,0,.052c-.042.51-.09,1.088-.105,1.655-.014.47-.031.948-.049,1.411l0,.11c-.058,1.519-.117,3.089-.051,4.629a6.5,6.5,0,0,1-1.686,4.982c-1.307,1.4-2.678,2.769-4.076,4.065-.939.872-1.916,1.725-2.86,2.55-.874.763-1.661,1.451-2.44,2.162A5.18,5.18,0,0,1,9547.415,11720.144Z" transform="translate(-9528.399 -11695.351)" stroke="rgba(0,0,0,0)" stroke-miterlimit="10" stroke-width="1" fill="red" opacity="0.5"/>
</svg>
