<svg xmlns="http://www.w3.org/2000/svg" width="34.482" height="25.301" viewBox="0 0 34.482 25.301">
  <path id="cheeks_322icon" data-name="cheeks_322icon" d="M9547.1,11710.145c-.318-.018-.647-.023-1.035-.023-.259,0-.525,0-.781.006l-.133,0-.8.009h-.015a3.894,3.894,0,0,1-2.311-.746,56.6,56.6,0,0,1-9.046-8.012,9.474,9.474,0,0,1-2.741-6.665,35.257,35.257,0,0,0-.724-5.628c-.146-.8-.3-1.632-.423-2.454-.009-.05-.015-.1-.023-.15l-.018-.123c-.018-.13-.035-.265-.05-.361.261.059.534.117.887.193l.139.029c.155.033.312.068.467.1.01.06.021.12.031.18,1.781,1.3,7.837.055,9.077,1.719a4.622,4.622,0,0,1,1,2.886c0,1.141-.053,2.283.009,3.418a6.186,6.186,0,0,1-1.942,4.891c-.829.837-1.641,1.692-2.45,2.55a48.21,48.21,0,0,0,6.062,5.429,3.481,3.481,0,0,0,2.151.744h.015l.723-.01c.256,0,.547-.006.832-.006.388,0,.708.006,1.011.024.091.006.188.009.282.009a4.665,4.665,0,0,0,3.383-1.461c.77-.759,1.584-1.522,2.3-2.2l.053-.05c.855-.8,1.737-1.631,2.581-2.472l.259-.26c-.731-.774-1.467-1.547-2.217-2.306a6.177,6.177,0,0,1-1.942-4.888c.062-1.138.012-2.277.009-3.421a4.614,4.614,0,0,1,1-2.883c1.105-1.483,6.036-.654,8.356-1.378,0-.021,0-.041,0-.062.006-.211.015-.4.023-.576.278.056.559.112.846.172l.045-.045.055.065.1.02.226.044c-.009.135-.02.273-.031.418a.45.45,0,0,1-.033.4c-.038.488-.077.987-.091,1.5-.006.194-.013.391-.02.586a.4.4,0,0,1,0,.049c-.01.274-.02.548-.029.816l0,.089,0,.035c-.057,1.5-.112,3.056-.048,4.578a6.5,6.5,0,0,1-1.687,4.981c-1.3,1.4-2.674,2.766-4.076,4.064-.926.858-1.893,1.705-2.83,2.521l-.032.032-.1.086c-.773.676-1.569,1.372-2.34,2.074a5.186,5.186,0,0,1-3.623,1.461C9547.313,11710.153,9547.207,11710.15,9547.1,11710.145Z" transform="translate(-9528.407 -11685.353)" stroke="rgba(0,0,0,0)" stroke-miterlimit="10" stroke-width="1" fill="red" opacity="0.5"/>
</svg>
