<svg xmlns="http://www.w3.org/2000/svg" width="34.504" height="25.298" viewBox="0 0 34.504 25.298">
  <path id="chinicon32" data-name="chinicon32" d="M9547.1,11710.146c-.914-.047-1.836-.009-2.753-.006a3.91,3.91,0,0,1-2.325-.746c-1.205-.829-2.356-1.723-3.465-2.657l0,0a67.614,67.614,0,0,1-5.58-5.353,9.482,9.482,0,0,1-2.742-6.668,35.187,35.187,0,0,0-.723-5.628c-.149-.8-.3-1.629-.426-2.451-.006-.05-.015-.1-.021-.153l-.018-.12c-.018-.132-.038-.268-.053-.361.261.059.534.117.89.193l.136.027c.158.035.314.067.47.1.026.161.056.323.083.484l.044.265a38.248,38.248,0,0,1,.676,5.643,9.878,9.878,0,0,0,2.554,6.669,61.818,61.818,0,0,0,6.074,6.126q1.14-.983,2.352-1.883a3.473,3.473,0,0,1,2.163-.746c.855,0,1.713.041,2.565-.006a4.653,4.653,0,0,1,3.668,1.451c.405.4.816.792,1.229,1.184.369-.35.732-.69,1.074-1.01l.053-.05c.853-.8,1.737-1.631,2.581-2.472,1.3-1.29,2.574-2.657,3.8-4.062a6.816,6.816,0,0,0,1.569-4.987c-.062-1.52-.006-3.071.044-4.573v-.006l.006-.126c.015-.474.032-.964.044-1.443.009-.214.018-.4.026-.579.341.068.682.139,1.04.212l.227.047q-.022.318-.053.67v.015l0,.024c-.041.52-.085,1.061-.1,1.61-.012.481-.032.973-.051,1.448v.092l0,.035c-.056,1.5-.114,3.054-.047,4.578a6.5,6.5,0,0,1-1.689,4.981c-1.3,1.4-2.672,2.766-4.073,4.062-.926.861-1.893,1.705-2.83,2.524l-.035.029-.1.089-.3.265c-.683.6-1.364,1.2-2.035,1.81l-.069.063a5.152,5.152,0,0,1-3.555,1.4C9547.313,11710.154,9547.208,11710.151,9547.1,11710.146Z" transform="translate(-9528.393 -11685.356)" stroke="rgba(0,0,0,0)" stroke-miterlimit="10" stroke-width="1" fill="red" opacity="0.5"/>
</svg>
