<svg width="25" height="25" viewBox="0 0 25 25" fill="none" xmlns="http://www.w3.org/2000/svg">
<path d="M6.50684 1.63135L3.80127 2.30713L1.6875 7.24121L3.31299 8.3252L4.65381 5.64453L5.48633 5.88379L4.75049 13.2129H11.9707L12.4199 8.9209L12.4639 8.52539H12.6836L12.4199 5.88379L13.2549 5.64453L14.5928 8.3252L16.2188 7.24121L14.1045 2.30713L11.3994 1.63135C11.1309 1.82031 10.8037 1.93457 10.4473 2.01953C9.98828 2.12744 9.4707 2.17773 8.95312 2.17773C8.43555 2.17773 7.91797 2.12744 7.45898 2.01953C7.10254 1.93457 6.77539 1.8208 6.50684 1.63135ZM13.2549 9.4043L13.1816 10.0879H21.9121L21.8389 9.4043H13.2549ZM13.0889 10.9668L11.7852 23.3691H14.8467L17.1172 12.7783H17.9766L20.2471 23.3691H23.3086L22.0049 10.9668H13.0889Z" fill="#F24822"/>
</svg>
