<svg width="25" height="25" viewBox="0 0 25 25" fill="none" xmlns="http://www.w3.org/2000/svg">
<g clip-path="url(#clip0_101_4)">
<path d="M12.5 25C5.59609 25 0 19.4039 0 12.5C0 5.59609 5.59609 0 12.5 0C19.4039 0 25 5.59609 25 12.5C25 15.8152 23.683 18.9946 21.3388 21.3388C18.9946 23.683 15.8152 25 12.5 25ZM12.5 1.5625C6.45938 1.5625 1.5625 6.45938 1.5625 12.5C1.5625 18.5406 6.45938 23.4375 12.5 23.4375C18.5406 23.4375 23.4375 18.5406 23.4375 12.5C23.4375 9.59919 22.2852 6.8172 20.234 4.76602C18.1828 2.71484 15.4008 1.5625 12.5 1.5625Z" opacity="0.5" fill="#151625"/>
<path d="M17.9688 11.7188H13.2812V7.03125H11.7188V11.7188H7.03125V13.2812H11.7188V17.9688H13.2812V13.2812H17.9688V11.7188Z" fill="#151625" opacity="0.5"/>
</g>
<defs>
<clipPath id="clip0_101_4">
<rect width="25" height="25" fill="white"/>
</clipPath>
</defs>
</svg>
