<svg xmlns="http://www.w3.org/2000/svg" width="34.992" height="16.567" viewBox="0 0 34.992 16.567">
  <g id="eyebrowsico_321" data-name="eyebrowsico 321" transform="translate(-51.09 -423.08)">
    <path id="eyebrowsico_322" data-name="eyebrowsico 322" d="M5375.688-2650.815a11.935,11.935,0,0,1-4.7-.994,15.814,15.814,0,0,1-3.582-2.159,17.723,17.723,0,0,1-3.119-3.133l-.288-.4.283-.395a16.563,16.563,0,0,1,2.021-2.217,13.758,13.758,0,0,0-1.02,1.215l-.284.4.285.392a17.561,17.561,0,0,0,3.121,3.139,15.887,15.887,0,0,0,3.581,2.159,11.94,11.94,0,0,0,4.7.994,11.94,11.94,0,0,0,4.7-.994,15.809,15.809,0,0,0,3.581-2.159c.393-.311.777-.641,1.145-.981a18.859,18.859,0,0,1-2.145,1.98,15.812,15.812,0,0,1-3.581,2.159A11.941,11.941,0,0,1,5375.688-2650.815Z" transform="translate(-5305.096 3089.962)" stroke="rgba(0,0,0,0)" stroke-miterlimit="10" stroke-width="1" fill="red" opacity="0.5"/>
    <path id="eyebrowsico_323" data-name="eyebrowsico 323" d="M.376,239.913l4.31-3.528a9.267,9.267,0,0,1,8.146-1.934l19.488,4.355a3.4,3.4,0,0,1,2.672,3.335v.058a3.429,3.429,0,0,1-3.392,3.423,3.5,3.5,0,0,1-.963-.138l-19.46-5.559a7.2,7.2,0,0,0-4.278.044l-5.571,1.717a1.025,1.025,0,0,1-.951-1.773Z" transform="translate(51.09 188.879)" fill="red" opacity="0.5"/>
  </g>
</svg>
