<svg xmlns="http://www.w3.org/2000/svg" width="34.598" height="20.083" viewBox="0 0 34.598 20.083">
  <path id="eyes_ico22" data-name="eyesico 22" d="M9.972,17.664a22.551,22.551,0,0,1-5.11-3.08A25.289,25.289,0,0,1,.407,10.106L0,9.546l.4-.563A24.8,24.8,0,0,1,4.825,4.5,22.307,22.307,0,0,1,9.933,1.419,17.179,17.179,0,0,1,16.628,0a7.822,7.822,0,0,0-7.8,7.772,7.854,7.854,0,0,0,15.708,0A7.822,7.822,0,0,0,16.732,0a17.063,17.063,0,0,1,6.657,1.419A22.616,22.616,0,0,1,28.5,4.5a25.369,25.369,0,0,1,4.455,4.478l.41.564-.41.565A25.352,25.352,0,0,1,28.5,14.584a22.583,22.583,0,0,1-5.11,3.08,17.036,17.036,0,0,1-6.708,1.419A17.035,17.035,0,0,1,9.972,17.664Zm.809-9.893a5.9,5.9,0,1,1,5.9,5.837A5.875,5.875,0,0,1,10.781,7.771Zm2.361,0a3.539,3.539,0,1,0,3.538-3.5A3.524,3.524,0,0,0,13.142,7.771Zm1.955,0A1.583,1.583,0,1,1,16.68,9.339,1.577,1.577,0,0,1,15.1,7.772ZM16.68,0h0Zm0,0h0Z" transform="translate(0.616 0.5)" stroke="rgba(0,0,0,0)" stroke-miterlimit="10" stroke-width="1" fill="red" opacity="0.5"/>
</svg>
