<svg width="25" height="25" viewBox="0 0 15 15" fill="none" xmlns="http://www.w3.org/2000/svg">
<path d="M4 6H5V5H4V6ZM10 6H11V5H10V6ZM10.1 8.7C9.79727 9.10364 9.40472 9.43125 8.95344 9.65689C8.50216 9.88253 8.00455 10 7.5 10C6.99545 10 6.49784 9.88253 6.04656 9.65689C5.59528 9.43125 5.20273 9.10364 4.9 8.7L4.1 9.3C5.8 11.567 9.2 11.567 10.9 9.3L10.1 8.7ZM1 5V2.5H0V5H1ZM2.5 1H5V0H2.5V1ZM1 2.5C1 2.10218 1.15804 1.72064 1.43934 1.43934C1.72064 1.15804 2.10218 1 2.5 1V0C1.83696 0 1.20107 0.263392 0.732233 0.732233C0.263392 1.20107 0 1.83696 0 2.5H1ZM0 10V12.5H1V10H0ZM2.5 15H5V14H2.5V15ZM0 12.5C0 13.163 0.263392 13.7989 0.732233 14.2678C1.20107 14.7366 1.83696 15 2.5 15V14C2.10218 14 1.72064 13.842 1.43934 13.5607C1.15804 13.2794 1 12.8978 1 12.5H0ZM10 1H12.5V0H10V1ZM14 2.5V5H15V2.5H14ZM12.5 1C12.8978 1 13.2794 1.15804 13.5607 1.43934C13.842 1.72064 14 2.10218 14 2.5H15C15 1.83696 14.7366 1.20107 14.2678 0.732233C13.7989 0.263392 13.163 0 12.5 0V1ZM10 15H12.5V14H10V15ZM15 12.5V10H14V12.5H15ZM12.5 15C13.163 15 13.7989 14.7366 14.2678 14.2678C14.7366 13.7989 15 13.163 15 12.5H14C14 12.8978 13.842 13.2794 13.5607 13.5607C13.2794 13.842 12.8978 14 12.5 14V15Z" fill="red"/>
</svg>
