<svg width="12" height="17" viewBox="0 0 12 17" fill="none" xmlns="http://www.w3.org/2000/svg">
<path d="M5 17V15H3V13H5V10.9C3.68333 10.6667 2.604 10.0373 1.762 9.012C0.920001 7.98667 0.499334 6.79933 0.500001 5.45C0.500001 3.93333 1.03767 2.646 2.113 1.588C3.18833 0.53 4.484 0.000667296 6 6.28931e-07C7.516 -0.000666038 8.812 0.528667 9.888 1.588C10.964 2.64733 11.5013 3.93467 11.5 5.45C11.5 6.8 11.079 7.98767 10.237 9.013C9.395 10.0383 8.316 10.6673 7 10.9V13H9V15H7V17H5ZM6 9C6.96667 9 7.79167 8.65833 8.475 7.975C9.15833 7.29167 9.5 6.46667 9.5 5.5C9.5 4.53333 9.15833 3.70833 8.475 3.025C7.79167 2.34167 6.96667 2 6 2C5.03333 2 4.20833 2.34167 3.525 3.025C2.84167 3.70833 2.5 4.53333 2.5 5.5C2.5 6.46667 2.84167 7.29167 3.525 7.975C4.20833 8.65833 5.03333 9 6 9Z" fill="#151625"/>
</svg>
