<svg width="25" height="25" viewBox="0 0 25 25" fill="none" xmlns="http://www.w3.org/2000/svg">
<path fill-rule="evenodd" clip-rule="evenodd" d="M5.23828 14.2719L5.97786 8.3448C6.03109 7.9184 6.17168 7.50756 6.39086 7.13795C6.61003 6.76834 6.90308 6.4479 7.25169 6.19666C7.60029 5.94542 7.99697 5.76878 8.41693 5.67777C8.83689 5.58676 9.27111 5.58333 9.69245 5.66772C10.5852 5.84688 11.5862 6.20938 12.4987 6.20938C13.4112 6.20938 14.4122 5.84688 15.3049 5.66772C15.7262 5.58349 16.1603 5.58704 16.5802 5.67813C17 5.76921 17.3965 5.94589 17.745 6.19711C18.0935 6.44834 18.3865 6.76872 18.6056 7.13824C18.8247 7.50777 18.9652 7.91851 19.0185 8.3448L19.7602 14.2719C20.9435 14.5677 22.9154 15.1406 22.9154 16.6667C22.9154 18.3292 20.6102 18.8771 19.3529 19.1563C17.5633 19.5542 15.1404 19.7917 12.4987 19.7917C9.85703 19.7917 7.43411 19.5542 5.64453 19.1563C4.3862 18.8771 2.08203 18.3292 2.08203 16.6667C2.08203 15.1406 4.05391 14.5677 5.23828 14.2719ZM8.04557 8.60417C8.06327 8.46197 8.11011 8.32495 8.18317 8.20168C8.25623 8.07841 8.35394 7.97154 8.47019 7.88775C8.58643 7.80397 8.71872 7.74506 8.85877 7.71473C8.99882 7.6844 9.14362 7.68329 9.28411 7.71147C10.3247 7.9198 11.4299 8.29272 12.4987 8.29272C13.5674 8.29272 14.6727 7.9198 15.7133 7.71147C15.8538 7.68329 15.9986 7.6844 16.1386 7.71473C16.2787 7.74506 16.411 7.80397 16.5272 7.88775C16.6435 7.97154 16.7412 8.07841 16.8142 8.20168C16.8873 8.32495 16.9341 8.46197 16.9518 8.60417L17.6091 13.8688C16.1102 13.6594 14.3591 13.5417 12.4987 13.5417C10.6383 13.5417 8.88724 13.6594 7.38828 13.8677L8.04557 8.60417ZM6.09557 17.124C4.47786 16.7646 4.47786 16.5708 6.09557 16.2115C7.69766 15.8542 9.96224 15.625 12.4987 15.625C15.0352 15.625 17.2997 15.8542 18.9018 16.2104C20.5195 16.5698 20.5195 16.7625 18.9018 17.1229C17.2997 17.4792 15.0352 17.7083 12.4987 17.7083C9.96224 17.7083 7.69766 17.4802 6.09557 17.124Z" fill="red" opacity=".5"/>
</svg>
