<svg width="30" height="30" viewBox="0 0 30 30" fill="none" xmlns="http://www.w3.org/2000/svg">
    <path d="M26.25 20.625C26.25 21.1 25.9875 21.5125 25.5875 21.725L15.7125 27.275C15.5125 27.425 15.2625 27.5 15 27.5C14.7375 27.5 14.4875 27.425 14.2875 27.275L4.41251 21.725C4.21202 21.6198 4.04423 21.4616 3.92742 21.2677C3.8106 21.0737 3.74924 20.8514 3.75001 20.625V9.375C3.75001 8.9 4.01251 8.4875 4.41251 8.275L14.2875 2.725C14.4875 2.575 14.7375 2.5 15 2.5C15.2625 2.5 15.5125 2.575 15.7125 2.725L25.5875 8.275C25.9875 8.4875 26.25 8.9 26.25 9.375V20.625Z" fill="black"/>
    <path d="M23.75 20.1042C23.75 20.5 23.5458 20.8437 23.2347 21.0208L15.5542 25.6458C15.3986 25.7708 15.2042 25.8333 15 25.8333C14.7958 25.8333 14.6014 25.7708 14.4458 25.6458L6.76528 21.0208C6.60935 20.9332 6.47885 20.8013 6.38799 20.6397C6.29714 20.4781 6.24941 20.2928 6.25001 20.1042V10.7292C6.25001 10.3333 6.45417 9.98958 6.76528 9.8125L14.4458 5.1875C14.6014 5.0625 14.7958 5 15 5C15.2042 5 15.3986 5.0625 15.5542 5.1875L23.2347 9.8125C23.5458 9.98958 23.75 10.3333 23.75 10.7292V20.1042ZM15 7.23958L8.19445 11.3437V19.4896L15 23.5937L21.8056 19.4896V11.3437L15 7.23958Z" fill="#FF0000"/>
</svg>
