<svg xmlns="http://www.w3.org/2000/svg" width="33" height="30" viewBox="0 0 33 30">
  <g id="noseico_331" data-name="noseico 331" transform="translate(5223 -2440)">
    <rect id="noseico_332" data-name="noseico 332" width="33" height="30" transform="translate(-5223 2440)" fill="none"/>
    <path id="noseico_333" data-name="noseico 333" d="M760.6,461.239A5.658,5.658,0,0,1,756,458.585a2.468,2.468,0,0,0-.194-.286.545.545,0,0,0-.936.529c.146.464.015.647-.433.636a4.757,4.757,0,0,1-3.939-7.143,4.556,4.556,0,0,1,2.731-2,2.377,2.377,0,0,0,1.984-2.4c.31-2.651.624-5.3.993-7.945a4.759,4.759,0,0,1,9.408.071c.367,2.773.7,5.551,1.055,8.325a2.106,2.106,0,0,0,1.574,1.848,5.569,5.569,0,0,1,2.239,1.148,4.346,4.346,0,0,1,1.351,4.376,4.494,4.494,0,0,1-3.3,3.515,6.033,6.033,0,0,1-1.211.2c-.366.03-.54-.2-.417-.532a.552.552,0,0,0-.251-.782c-.281-.146-.546-.018-.788.352A5.937,5.937,0,0,1,760.6,461.239Z" transform="translate(-5967.403 2006.393)" fill="red" opacity="0.5"/>
  </g>
</svg>
