<svg width="25" height="25" viewBox="0 0 25 25" fill="none" xmlns="http://www.w3.org/2000/svg">
<path d="M21.8638 20.8984L19.7154 3.71094C19.6678 3.33326 19.484 2.98594 19.1984 2.7342C18.9129 2.48246 18.5453 2.34362 18.1646 2.34375H6.83647C6.45581 2.34362 6.08819 2.48246 5.80264 2.7342C5.5171 2.98594 5.33328 3.33326 5.28569 3.71094L3.13726 20.8984C3.10954 21.1184 3.12896 21.3418 3.19423 21.5537C3.2595 21.7656 3.36912 21.9612 3.5158 22.1274C3.66249 22.2937 3.84288 22.4269 4.045 22.518C4.24711 22.6092 4.46631 22.6563 4.68804 22.6562H8.66167C9.00915 22.6563 9.34674 22.5405 9.62105 22.3272C9.89536 22.1139 10.0907 21.8153 10.1763 21.4785L12.5005 12.4941L14.8238 21.4727C14.9083 21.8107 15.1033 22.1108 15.3779 22.3252C15.6526 22.5397 15.991 22.6562 16.3394 22.6562H20.313C20.5348 22.6563 20.754 22.6092 20.9561 22.518C21.1582 22.4269 21.3386 22.2937 21.4853 22.1274C21.632 21.9612 21.7416 21.7656 21.8068 21.5537C21.8721 21.3418 21.8915 21.1184 21.8638 20.8984ZM18.8384 9.29687C18.2795 9.16858 17.7664 8.88955 17.3549 8.49012C16.9434 8.09069 16.6493 7.58612 16.5044 7.03125H18.5552L18.8384 9.29687ZM18.1646 3.90625L18.3599 5.46875H6.64116L6.83647 3.90625H18.1646ZM6.44585 7.03125H8.49663C8.35178 7.58612 8.05763 8.09069 7.64615 8.49012C7.23466 8.88955 6.72158 9.16858 6.16265 9.29687L6.44585 7.03125ZM8.66167 21.0938H4.68804L5.95757 10.9111C6.97512 10.8031 7.92952 10.3656 8.67555 9.66524C9.42158 8.96487 9.91839 8.03996 10.0904 7.03125H11.7193V9.27734L8.66167 21.0938ZM16.3374 21.0879L13.2818 9.27734V7.03125H14.9107C15.0827 8.03996 15.5795 8.96487 16.3255 9.66524C17.0715 10.3656 18.026 10.8031 19.0435 10.9111L20.313 21.0938L16.3374 21.0879Z" fill="#F24822"/>
</svg>
