<svg width="25" height="24" viewBox="0 0 25 24" fill="none" xmlns="http://www.w3.org/2000/svg">
<path d="M16.665 0.381836V4.54688H6.25C2.79785 4.54688 0 7.34473 0 10.7969C0 11.8467 0.283203 12.8184 0.742187 13.6875L3.32031 11.8516C3.20312 11.5195 3.125 11.1729 3.125 10.8018C3.125 9.07324 4.52637 7.67676 6.25 7.67676H16.665V11.8418L25 6.63184V5.5918L16.665 0.381836ZM21.6797 11.832C21.7969 12.1641 21.875 12.5107 21.875 12.8818C21.875 14.6104 20.4785 16.0068 18.75 16.0068H8.33496V11.8418L0 17.0518V18.0918L8.33496 23.3018V19.1367H18.75C22.2021 19.1367 25 16.3389 25 12.8867C25 11.8369 24.7168 10.8652 24.2578 9.99609L21.6797 11.832Z" opacity="0.5" fill="#151625"/>
</svg>
