<svg width="19" height="25" viewBox="0 0 19 25" fill="none" xmlns="http://www.w3.org/2000/svg">
<path d="M11.063 1.0625H11.0625L7.9375 1.0625L7.93695 1.0625C6.14749 1.06445 4.43187 1.77618 3.16653 3.04153C1.90118 4.30687 1.18945 6.02249 1.1875 7.81195V7.8125L1.1875 17.1875L1.1875 17.188C1.18945 18.9775 1.90118 20.6931 3.16653 21.9585C4.43187 23.2238 6.14749 23.9355 7.93695 23.9375H7.9375H11.0625H11.063C12.8525 23.9355 14.5681 23.2238 15.8335 21.9585C17.0988 20.6931 17.8105 18.9775 17.8125 17.188V17.1875V7.8125V7.81195C17.8105 6.02249 17.0988 4.30687 15.8335 3.04153C14.5681 1.77618 12.8525 1.06445 11.063 1.0625ZM7.93802 3.625L9 3.625V9.65625H3.75L3.75 7.81302C3.75 7.81295 3.75 7.81287 3.75 7.8128C3.75121 6.7025 4.19281 5.63802 4.97792 4.85292C5.76302 4.06781 6.8275 3.62621 7.9378 3.625C7.93787 3.625 7.93795 3.625 7.93802 3.625ZM11.062 21.375H7.93802C6.82764 21.3738 5.76307 20.9322 4.97792 20.1471C4.19281 19.362 3.75121 18.2975 3.75 17.1872C3.75 17.1871 3.75 17.1871 3.75 17.187L3.75 12.2188H15.25V17.187C15.2488 18.2974 14.8072 19.3619 14.0221 20.1471C13.2369 20.9322 12.1724 21.3738 11.062 21.375Z" fill="white" stroke="black"/>
</svg>
