<svg width="25" height="25" viewBox="0 0 25 25" fill="none" xmlns="http://www.w3.org/2000/svg">
<path fill-rule="evenodd" clip-rule="evenodd" d="M18.7766 4.06456C18.6183 3.7906 18.3099 3.55206 18.0308 3.55206C17.5308 3.55206 16.8881 4.05206 16.4995 4.35519C15.9172 4.80831 15.2381 5.23852 14.5089 5.38852C13.9693 5.4979 13.3256 5.4156 12.7568 5.26665C12.6631 5.24269 11.8568 4.9604 11.8568 4.9604C10.7401 4.44477 10.2443 5.9104 9.80368 6.63227C9.5016 7.12498 9.12139 7.71248 8.6891 8.30519C8.51648 8.28924 8.34261 8.31663 8.18325 8.38487C8.02389 8.4531 7.88407 8.56004 7.77649 8.69597C7.6689 8.8319 7.59694 8.99253 7.56713 9.16331C7.53732 9.33408 7.5506 9.50959 7.60577 9.67394C7.28493 10.0663 6.98042 10.4434 6.69223 10.8052C6.49236 10.7488 6.28019 10.7534 6.08297 10.8184C5.88575 10.8835 5.71247 11.006 5.58539 11.1703C5.4583 11.3345 5.38322 11.533 5.36978 11.7402C5.35633 11.9475 5.40514 12.154 5.50993 12.3333C4.39327 13.826 3.62452 15.0396 3.18077 16.1198C2.80577 17.0364 2.64535 17.8937 2.71514 18.7677C2.78493 19.6291 3.07139 20.4323 3.47243 21.2427C4.01618 22.3416 5.34952 22.6427 6.32556 22.0791L21.661 13.225C22.1395 12.9487 22.4886 12.4937 22.6316 11.96C22.7746 11.4263 22.6997 10.8576 22.4235 10.3791L18.7766 4.06456ZM19.0558 8.71456L17.5776 6.15519C16.7818 6.72394 15.8933 7.23123 14.9266 7.42915C13.9329 7.63227 12.9276 7.46456 12.2318 7.28331C11.8037 7.17185 11.811 7.34269 11.5808 7.71873C11.3183 8.14894 10.9933 8.65519 10.6224 9.18331L10.7381 9.2406C10.8616 9.30068 10.972 9.38458 11.0629 9.48749C11.1539 9.5904 11.2236 9.71027 11.268 9.84022C11.3125 9.97017 11.3308 10.1076 11.3219 10.2447C11.313 10.3817 11.2771 10.5157 11.2163 10.6388C11.1554 10.7619 11.0709 10.8718 10.9674 10.9621C10.8639 11.0524 10.7436 11.1214 10.6134 11.165C10.4832 11.2087 10.3456 11.2261 10.2086 11.2164C10.0716 11.2066 9.93789 11.1699 9.81514 11.1083L9.32243 10.8646C9.07452 11.1673 8.83841 11.459 8.6141 11.7396C8.84341 11.8774 9.01089 12.0982 9.08185 12.3561C9.1528 12.6141 9.12179 12.8894 8.99523 13.1251C8.86867 13.3608 8.65627 13.5388 8.40205 13.6222C8.14783 13.7055 7.87128 13.6879 7.62973 13.5729L7.30473 13.4125C6.17348 14.9094 5.47973 16.0031 5.10681 16.9104C4.83077 17.5844 4.75264 18.1125 4.79118 18.601C4.82973 19.0864 4.99118 19.6052 5.30993 20.2594L20.6183 11.4208L20.0974 10.5187L15.587 13.1229C15.3479 13.2589 15.0647 13.2947 14.7992 13.2226C14.5338 13.1506 14.3076 12.9764 14.1701 12.7382C14.0325 12.5 13.9948 12.217 14.0651 11.9511C14.1354 11.6852 14.3081 11.4578 14.5454 11.3187L19.0558 8.71456Z" fill="#F24822"/>
</svg>
