<svg width="25" height="25" viewBox="0 0 25 25" fill="none" xmlns="http://www.w3.org/2000/svg">
<path d="M15.625 4.16669L21.875 6.25002V11.4584H18.75V19.7917C18.75 20.068 18.6403 20.3329 18.4449 20.5283C18.2496 20.7236 17.9846 20.8334 17.7083 20.8334H7.29167C7.0154 20.8334 6.75045 20.7236 6.5551 20.5283C6.35975 20.3329 6.25 20.068 6.25 19.7917V11.4584H3.125V6.25002L9.375 4.16669C9.375 4.99549 9.70424 5.79034 10.2903 6.3764C10.8763 6.96245 11.6712 7.29169 12.5 7.29169C13.3288 7.29169 14.1237 6.96245 14.7097 6.3764C15.2958 5.79034 15.625 4.99549 15.625 4.16669Z" stroke="#F24822" stroke-width="2.08333" stroke-linecap="round" stroke-linejoin="round"/>
</svg>
